<svg xmlns="http://www.w3.org/2000/svg" width="585" height="313" fill="none" viewBox="0 0 585 313"><path fill="#fff" fill-opacity=".09" fill-rule="evenodd" d="M13.125 313.07s-37.819-75.628 33.335-149.023c63.576-65.578-11.013-71.586 60.572-128.904C152.515-1.275 213.59-6.318 251.455 6.108c96.866 31.788 64.327 80.847 137.665 95.614s106.813-21.89 147.176 12.265c75.09 63.541 32.556 199.083 32.556 199.083z" clip-rule="evenodd"/><path fill="#000" d="M13.81 312.496a.626.626 0 1 0 0 1.252zm11.692 1.252a.626.626 0 0 0 0-1.252zm10.075-1.252a.626.626 0 1 0 0 1.252zm497.6 1.252a.626.626 0 0 0 0-1.252zm6.106-1.228a.626.626 0 0 0 0 1.251zm9.389 1.251a.625.625 0 0 0 0-1.251zm3.884-1.275a.626.626 0 1 0 0 1.252zm16.449 1.252a.626.626 0 0 0 0-1.252zm-555.195 0h11.692v-1.252H13.81zm21.767 0h497.6v-1.252h-497.6zm503.706.023h9.389v-1.251h-9.389zm13.273-.023h16.449v-1.252h-16.449z"/><path fill="#f1faee" stroke="#000" stroke-width="1.252" d="M140.208 175.157h212.228v137.462H140.208z"/><rect width="58.338" height="126.134" x="454.446" y="187.071" fill="#eff5ff" stroke="#000" stroke-width="1.252" rx=".751"/><mask id="a" width="61" height="128" x="453" y="186" maskUnits="userSpaceOnUse" style="mask-type:luminance"><rect width="58.338" height="126.134" x="454.446" y="187.071" fill="#fff" stroke="#fff" stroke-width="1.252" rx=".751"/></mask><g mask="url(#a)"><path fill="#fff" fill-rule="evenodd" d="M454.592 191.527h57.739z" clip-rule="evenodd"/><path stroke="#000" stroke-width="1.252" d="M454.592 191.527h57.739"/><path fill="#fff" fill-rule="evenodd" d="M454.592 202.236h57.739z" clip-rule="evenodd"/><path stroke="#000" stroke-width="1.252" d="M454.592 202.236h57.739"/><path fill="#fff" fill-rule="evenodd" d="M454.592 196.881h57.739z" clip-rule="evenodd"/><path stroke="#000" stroke-width="1.252" d="M454.592 196.881h57.739"/><path fill="#fff" fill-rule="evenodd" d="M454.592 207.59h57.739z" clip-rule="evenodd"/><path stroke="#000" stroke-width="1.252" d="M454.592 207.59h57.739"/><path fill="#fff" fill-rule="evenodd" d="M461.993 186.302v5.714z" clip-rule="evenodd"/><path stroke="#000" stroke-width="1.252" d="M461.993 186.302v5.714"/><path fill="#fff" fill-rule="evenodd" d="M461.993 197.011v5.714z" clip-rule="evenodd"/><path stroke="#000" stroke-width="1.252" d="M461.993 197.011v5.714"/><path fill="#fff" fill-rule="evenodd" d="M466.999 191.656v5.715z" clip-rule="evenodd"/><path stroke="#000" stroke-width="1.252" d="M466.999 191.656v5.715"/><path fill="#fff" fill-rule="evenodd" d="M466.999 202.365v5.714z" clip-rule="evenodd"/><path stroke="#000" stroke-width="1.252" d="M466.999 202.365v5.714"/><path fill="#fff" fill-rule="evenodd" d="M475.259 186.302v5.714z" clip-rule="evenodd"/><path stroke="#000" stroke-width="1.252" d="M475.259 186.302v5.714"/><path fill="#fff" fill-rule="evenodd" d="M475.259 197.011v5.714z" clip-rule="evenodd"/><path stroke="#000" stroke-width="1.252" d="M475.259 197.011v5.714"/><path fill="#fff" fill-rule="evenodd" d="M480.265 191.656v5.715z" clip-rule="evenodd"/><path stroke="#000" stroke-width="1.252" d="M480.265 191.656v5.715"/><path fill="#fff" fill-rule="evenodd" d="M480.265 202.365v5.714z" clip-rule="evenodd"/><path stroke="#000" stroke-width="1.252" d="M480.265 202.365v5.714"/><path fill="#fff" fill-rule="evenodd" d="M488.275 186.302v5.714z" clip-rule="evenodd"/><path stroke="#000" stroke-width="1.252" d="M488.275 186.302v5.714"/><path fill="#fff" fill-rule="evenodd" d="M488.275 197.011v5.714z" clip-rule="evenodd"/><path stroke="#000" stroke-width="1.252" d="M488.275 197.011v5.714"/><path fill="#fff" fill-rule="evenodd" d="M493.281 191.656v5.715z" clip-rule="evenodd"/><path stroke="#000" stroke-width="1.252" d="M493.281 191.656v5.715"/><path fill="#fff" fill-rule="evenodd" d="M493.281 202.365v5.714z" clip-rule="evenodd"/><path stroke="#000" stroke-width="1.252" d="M493.281 202.365v5.714"/><path fill="#fff" fill-rule="evenodd" d="M501.541 186.302v5.714z" clip-rule="evenodd"/><path stroke="#000" stroke-width="1.252" d="M501.541 186.302v5.714"/><path fill="#fff" fill-rule="evenodd" d="M501.541 197.011v5.714z" clip-rule="evenodd"/><path stroke="#000" stroke-width="1.252" d="M501.541 197.011v5.714"/><path fill="#fff" fill-rule="evenodd" d="M506.547 191.656v5.715z" clip-rule="evenodd"/><path stroke="#000" stroke-width="1.252" d="M506.547 191.656v5.715"/><path fill="#fff" fill-rule="evenodd" d="M506.547 202.365v5.714z" clip-rule="evenodd"/><path stroke="#000" stroke-width="1.252" d="M506.547 202.365v5.714"/><path fill="#fff" fill-rule="evenodd" d="M454.592 212.748h57.739z" clip-rule="evenodd"/><path stroke="#000" stroke-width="1.252" d="M454.592 212.748h57.739"/><path fill="#fff" fill-rule="evenodd" d="M454.592 218.102h57.739z" clip-rule="evenodd"/><path stroke="#000" stroke-width="1.252" d="M454.592 218.102h57.739"/><path fill="#fff" fill-rule="evenodd" d="M461.993 207.523v5.714z" clip-rule="evenodd"/><path stroke="#000" stroke-width="1.252" d="M461.993 207.523v5.714"/><path fill="#fff" fill-rule="evenodd" d="M466.999 212.878v5.714z" clip-rule="evenodd"/><path stroke="#000" stroke-width="1.252" d="M466.999 212.878v5.714"/><path fill="#fff" fill-rule="evenodd" d="M475.259 207.523v5.714z" clip-rule="evenodd"/><path stroke="#000" stroke-width="1.252" d="M475.259 207.523v5.714"/><path fill="#fff" fill-rule="evenodd" d="M480.265 212.878v5.714z" clip-rule="evenodd"/><path stroke="#000" stroke-width="1.252" d="M480.265 212.878v5.714"/><path fill="#fff" fill-rule="evenodd" d="M488.275 207.523v5.714z" clip-rule="evenodd"/><path stroke="#000" stroke-width="1.252" d="M488.275 207.523v5.714"/><path fill="#fff" fill-rule="evenodd" d="M493.281 212.878v5.714z" clip-rule="evenodd"/><path stroke="#000" stroke-width="1.252" d="M493.281 212.878v5.714"/><path fill="#fff" fill-rule="evenodd" d="M501.541 207.523v5.714z" clip-rule="evenodd"/><path stroke="#000" stroke-width="1.252" d="M501.541 207.523v5.714"/><path fill="#fff" fill-rule="evenodd" d="M506.547 212.878v5.714z" clip-rule="evenodd"/><path stroke="#000" stroke-width="1.252" d="M506.547 212.878v5.714"/><path fill="#fff" fill-rule="evenodd" d="M454.592 223.261h57.739z" clip-rule="evenodd"/><path stroke="#000" stroke-width="1.252" d="M454.592 223.261h57.739"/><path fill="#fff" fill-rule="evenodd" d="M454.592 228.615h57.739z" clip-rule="evenodd"/><path stroke="#000" stroke-width="1.252" d="M454.592 228.615h57.739"/><path fill="#fff" fill-rule="evenodd" d="M461.993 218.036v5.714z" clip-rule="evenodd"/><path stroke="#000" stroke-width="1.252" d="M461.993 218.036v5.714"/><path fill="#fff" fill-rule="evenodd" d="M466.999 223.39v5.714z" clip-rule="evenodd"/><path stroke="#000" stroke-width="1.252" d="M466.999 223.39v5.714"/><path fill="#fff" fill-rule="evenodd" d="M475.259 218.036v5.714z" clip-rule="evenodd"/><path stroke="#000" stroke-width="1.252" d="M475.259 218.036v5.714"/><path fill="#fff" fill-rule="evenodd" d="M480.265 223.39v5.714z" clip-rule="evenodd"/><path stroke="#000" stroke-width="1.252" d="M480.265 223.39v5.714"/><path fill="#fff" fill-rule="evenodd" d="M488.275 218.036v5.714z" clip-rule="evenodd"/><path stroke="#000" stroke-width="1.252" d="M488.275 218.036v5.714"/><path fill="#fff" fill-rule="evenodd" d="M493.281 223.39v5.714z" clip-rule="evenodd"/><path stroke="#000" stroke-width="1.252" d="M493.281 223.39v5.714"/><path fill="#fff" fill-rule="evenodd" d="M501.541 218.036v5.714z" clip-rule="evenodd"/><path stroke="#000" stroke-width="1.252" d="M501.541 218.036v5.714"/><path fill="#fff" fill-rule="evenodd" d="M506.547 223.39v5.714z" clip-rule="evenodd"/><path stroke="#000" stroke-width="1.252" d="M506.547 223.39v5.714"/><path fill="#fff" fill-rule="evenodd" d="M454.592 233.773h57.739z" clip-rule="evenodd"/><path stroke="#000" stroke-width="1.252" d="M454.592 233.773h57.739"/><path fill="#fff" fill-rule="evenodd" d="M454.592 239.128h57.739z" clip-rule="evenodd"/><path stroke="#000" stroke-width="1.252" d="M454.592 239.128h57.739"/><path fill="#fff" fill-rule="evenodd" d="M461.993 228.548v5.715z" clip-rule="evenodd"/><path stroke="#000" stroke-width="1.252" d="M461.993 228.548v5.715"/><path fill="#fff" fill-rule="evenodd" d="M466.999 233.903v5.714z" clip-rule="evenodd"/><path stroke="#000" stroke-width="1.252" d="M466.999 233.903v5.714"/><path fill="#fff" fill-rule="evenodd" d="M475.259 228.548v5.715z" clip-rule="evenodd"/><path stroke="#000" stroke-width="1.252" d="M475.259 228.548v5.715"/><path fill="#fff" fill-rule="evenodd" d="M480.265 233.903v5.714z" clip-rule="evenodd"/><path stroke="#000" stroke-width="1.252" d="M480.265 233.903v5.714"/><path fill="#fff" fill-rule="evenodd" d="M488.275 228.548v5.715z" clip-rule="evenodd"/><path stroke="#000" stroke-width="1.252" d="M488.275 228.548v5.715"/><path fill="#fff" fill-rule="evenodd" d="M493.281 233.903v5.714z" clip-rule="evenodd"/><path stroke="#000" stroke-width="1.252" d="M493.281 233.903v5.714"/><path fill="#fff" fill-rule="evenodd" d="M501.541 228.548v5.715z" clip-rule="evenodd"/><path stroke="#000" stroke-width="1.252" d="M501.541 228.548v5.715"/><path fill="#fff" fill-rule="evenodd" d="M506.547 233.903v5.714z" clip-rule="evenodd"/><path stroke="#000" stroke-width="1.252" d="M506.547 233.903v5.714"/><path fill="#fff" fill-rule="evenodd" d="M454.592 244.286h57.739z" clip-rule="evenodd"/><path stroke="#000" stroke-width="1.252" d="M454.592 244.286h57.739"/><path fill="#fff" fill-rule="evenodd" d="M454.592 249.64h57.739z" clip-rule="evenodd"/><path stroke="#000" stroke-width="1.252" d="M454.592 249.64h57.739"/><path fill="#fff" fill-rule="evenodd" d="M461.993 239.061v5.714z" clip-rule="evenodd"/><path stroke="#000" stroke-width="1.252" d="M461.993 239.061v5.714"/><path fill="#fff" fill-rule="evenodd" d="M466.999 244.415v5.715z" clip-rule="evenodd"/><path stroke="#000" stroke-width="1.252" d="M466.999 244.415v5.715"/><path fill="#fff" fill-rule="evenodd" d="M475.259 239.061v5.714z" clip-rule="evenodd"/><path stroke="#000" stroke-width="1.252" d="M475.259 239.061v5.714"/><path fill="#fff" fill-rule="evenodd" d="M480.265 244.415v5.715z" clip-rule="evenodd"/><path stroke="#000" stroke-width="1.252" d="M480.265 244.415v5.715"/><path fill="#fff" fill-rule="evenodd" d="M488.275 239.061v5.714z" clip-rule="evenodd"/><path stroke="#000" stroke-width="1.252" d="M488.275 239.061v5.714"/><path fill="#fff" fill-rule="evenodd" d="M493.281 244.415v5.715z" clip-rule="evenodd"/><path stroke="#000" stroke-width="1.252" d="M493.281 244.415v5.715"/><path fill="#fff" fill-rule="evenodd" d="M501.541 239.061v5.714z" clip-rule="evenodd"/><path stroke="#000" stroke-width="1.252" d="M501.541 239.061v5.714"/><path fill="#fff" fill-rule="evenodd" d="M506.547 244.415v5.715z" clip-rule="evenodd"/><path stroke="#000" stroke-width="1.252" d="M506.547 244.415v5.715"/><path fill="#fff" fill-rule="evenodd" d="M454.592 254.799h57.739z" clip-rule="evenodd"/><path stroke="#000" stroke-width="1.252" d="M454.592 254.799h57.739"/><path fill="#fff" fill-rule="evenodd" d="M454.592 260.153h57.739z" clip-rule="evenodd"/><path stroke="#000" stroke-width="1.252" d="M454.592 260.153h57.739"/><path fill="#fff" fill-rule="evenodd" d="M461.993 249.574v5.714z" clip-rule="evenodd"/><path stroke="#000" stroke-width="1.252" d="M461.993 249.574v5.714"/><path fill="#fff" fill-rule="evenodd" d="M466.999 254.928v5.714z" clip-rule="evenodd"/><path stroke="#000" stroke-width="1.252" d="M466.999 254.928v5.714"/><path fill="#fff" fill-rule="evenodd" d="M475.259 249.574v5.714z" clip-rule="evenodd"/><path stroke="#000" stroke-width="1.252" d="M475.259 249.574v5.714"/><path fill="#fff" fill-rule="evenodd" d="M480.265 254.928v5.714z" clip-rule="evenodd"/><path stroke="#000" stroke-width="1.252" d="M480.265 254.928v5.714"/><path fill="#fff" fill-rule="evenodd" d="M488.275 249.574v5.714z" clip-rule="evenodd"/><path stroke="#000" stroke-width="1.252" d="M488.275 249.574v5.714"/><path fill="#fff" fill-rule="evenodd" d="M493.281 254.928v5.714z" clip-rule="evenodd"/><path stroke="#000" stroke-width="1.252" d="M493.281 254.928v5.714"/><path fill="#fff" fill-rule="evenodd" d="M501.541 249.574v5.714z" clip-rule="evenodd"/><path stroke="#000" stroke-width="1.252" d="M501.541 249.574v5.714"/><path fill="#fff" fill-rule="evenodd" d="M506.547 254.928v5.714z" clip-rule="evenodd"/><path stroke="#000" stroke-width="1.252" d="M506.547 254.928v5.714"/><path fill="#fff" fill-rule="evenodd" d="M454.592 265.311h57.739z" clip-rule="evenodd"/><path stroke="#000" stroke-width="1.252" d="M454.592 265.311h57.739"/><path fill="#fff" fill-rule="evenodd" d="M454.592 270.665h57.739z" clip-rule="evenodd"/><path stroke="#000" stroke-width="1.252" d="M454.592 270.665h57.739"/><path fill="#fff" fill-rule="evenodd" d="M461.993 260.086v5.714z" clip-rule="evenodd"/><path stroke="#000" stroke-width="1.252" d="M461.993 260.086v5.714"/><path fill="#fff" fill-rule="evenodd" d="M466.999 265.441v5.714z" clip-rule="evenodd"/><path stroke="#000" stroke-width="1.252" d="M466.999 265.441v5.714"/><path fill="#fff" fill-rule="evenodd" d="M475.259 260.086v5.714z" clip-rule="evenodd"/><path stroke="#000" stroke-width="1.252" d="M475.259 260.086v5.714"/><path fill="#fff" fill-rule="evenodd" d="M480.265 265.441v5.714z" clip-rule="evenodd"/><path stroke="#000" stroke-width="1.252" d="M480.265 265.441v5.714"/><path fill="#fff" fill-rule="evenodd" d="M488.275 260.086v5.714z" clip-rule="evenodd"/><path stroke="#000" stroke-width="1.252" d="M488.275 260.086v5.714"/><path fill="#fff" fill-rule="evenodd" d="M493.281 265.441v5.714z" clip-rule="evenodd"/><path stroke="#000" stroke-width="1.252" d="M493.281 265.441v5.714"/><path fill="#fff" fill-rule="evenodd" d="M501.541 260.086v5.714z" clip-rule="evenodd"/><path stroke="#000" stroke-width="1.252" d="M501.541 260.086v5.714"/><path fill="#fff" fill-rule="evenodd" d="M506.547 265.441v5.714z" clip-rule="evenodd"/><path stroke="#000" stroke-width="1.252" d="M506.547 265.441v5.714"/><path fill="#fff" fill-rule="evenodd" d="M454.592 275.824h57.739z" clip-rule="evenodd"/><path stroke="#000" stroke-width="1.252" d="M454.592 275.824h57.739"/><path fill="#fff" fill-rule="evenodd" d="M454.592 281.178h57.739z" clip-rule="evenodd"/><path stroke="#000" stroke-width="1.252" d="M454.592 281.178h57.739"/><path fill="#fff" fill-rule="evenodd" d="M461.993 270.599v5.714z" clip-rule="evenodd"/><path stroke="#000" stroke-width="1.252" d="M461.993 270.599v5.714"/><path fill="#fff" fill-rule="evenodd" d="M466.999 275.953v5.714z" clip-rule="evenodd"/><path stroke="#000" stroke-width="1.252" d="M466.999 275.953v5.714"/><path fill="#fff" fill-rule="evenodd" d="M475.259 270.599v5.714z" clip-rule="evenodd"/><path stroke="#000" stroke-width="1.252" d="M475.259 270.599v5.714"/><path fill="#fff" fill-rule="evenodd" d="M480.265 275.953v5.714z" clip-rule="evenodd"/><path stroke="#000" stroke-width="1.252" d="M480.265 275.953v5.714"/><path fill="#fff" fill-rule="evenodd" d="M488.275 270.599v5.714z" clip-rule="evenodd"/><path stroke="#000" stroke-width="1.252" d="M488.275 270.599v5.714"/><path fill="#fff" fill-rule="evenodd" d="M493.281 275.953v5.714z" clip-rule="evenodd"/><path stroke="#000" stroke-width="1.252" d="M493.281 275.953v5.714"/><path fill="#fff" fill-rule="evenodd" d="M501.541 270.599v5.714z" clip-rule="evenodd"/><path stroke="#000" stroke-width="1.252" d="M501.541 270.599v5.714"/><path fill="#fff" fill-rule="evenodd" d="M506.547 275.953v5.714z" clip-rule="evenodd"/><path stroke="#000" stroke-width="1.252" d="M506.547 275.953v5.714"/><path fill="#fff" fill-rule="evenodd" d="M454.592 286.336h57.739z" clip-rule="evenodd"/><path stroke="#000" stroke-width="1.252" d="M454.592 286.336h57.739"/><path fill="#fff" fill-rule="evenodd" d="M454.592 291.691h57.739z" clip-rule="evenodd"/><path stroke="#000" stroke-width="1.252" d="M454.592 291.691h57.739"/><path fill="#fff" fill-rule="evenodd" d="M461.993 281.111v5.715z" clip-rule="evenodd"/><path stroke="#000" stroke-width="1.252" d="M461.993 281.111v5.715"/><path fill="#fff" fill-rule="evenodd" d="M466.999 286.466v5.714z" clip-rule="evenodd"/><path stroke="#000" stroke-width="1.252" d="M466.999 286.466v5.714"/><path fill="#fff" fill-rule="evenodd" d="M475.259 281.111v5.715z" clip-rule="evenodd"/><path stroke="#000" stroke-width="1.252" d="M475.259 281.111v5.715"/><path fill="#fff" fill-rule="evenodd" d="M480.265 286.466v5.714z" clip-rule="evenodd"/><path stroke="#000" stroke-width="1.252" d="M480.265 286.466v5.714"/><path fill="#fff" fill-rule="evenodd" d="M488.275 281.111v5.715z" clip-rule="evenodd"/><path stroke="#000" stroke-width="1.252" d="M488.275 281.111v5.715"/><path fill="#fff" fill-rule="evenodd" d="M493.281 286.466v5.714z" clip-rule="evenodd"/><path stroke="#000" stroke-width="1.252" d="M493.281 286.466v5.714"/><path fill="#fff" fill-rule="evenodd" d="M501.541 281.111v5.715z" clip-rule="evenodd"/><path stroke="#000" stroke-width="1.252" d="M501.541 281.111v5.715"/><path fill="#fff" fill-rule="evenodd" d="M506.547 286.466v5.714z" clip-rule="evenodd"/><path stroke="#000" stroke-width="1.252" d="M506.547 286.466v5.714"/><path fill="#fff" fill-rule="evenodd" d="M454.592 296.849h57.739z" clip-rule="evenodd"/><path stroke="#000" stroke-width="1.252" d="M454.592 296.849h57.739"/><path fill="#fff" fill-rule="evenodd" d="M454.592 302.203h57.739z" clip-rule="evenodd"/><path stroke="#000" stroke-width="1.252" d="M454.592 302.203h57.739"/><path fill="#fff" fill-rule="evenodd" d="M461.993 291.624v5.714z" clip-rule="evenodd"/><path stroke="#000" stroke-width="1.252" d="M461.993 291.624v5.714"/><path fill="#fff" fill-rule="evenodd" d="M466.999 296.978v5.715z" clip-rule="evenodd"/><path stroke="#000" stroke-width="1.252" d="M466.999 296.978v5.715"/><path fill="#fff" fill-rule="evenodd" d="M475.259 291.624v5.714z" clip-rule="evenodd"/><path stroke="#000" stroke-width="1.252" d="M475.259 291.624v5.714"/><path fill="#fff" fill-rule="evenodd" d="M480.265 296.978v5.715z" clip-rule="evenodd"/><path stroke="#000" stroke-width="1.252" d="M480.265 296.978v5.715"/><path fill="#fff" fill-rule="evenodd" d="M488.275 291.624v5.714z" clip-rule="evenodd"/><path stroke="#000" stroke-width="1.252" d="M488.275 291.624v5.714"/><path fill="#fff" fill-rule="evenodd" d="M493.281 296.978v5.715z" clip-rule="evenodd"/><path stroke="#000" stroke-width="1.252" d="M493.281 296.978v5.715"/><path fill="#fff" fill-rule="evenodd" d="M501.541 291.624v5.714z" clip-rule="evenodd"/><path stroke="#000" stroke-width="1.252" d="M501.541 291.624v5.714"/><path fill="#fff" fill-rule="evenodd" d="M506.547 296.978v5.715z" clip-rule="evenodd"/><path stroke="#000" stroke-width="1.252" d="M506.547 296.978v5.715"/><path fill="#fff" fill-rule="evenodd" d="M454.592 307.361h57.739z" clip-rule="evenodd"/><path stroke="#000" stroke-width="1.252" d="M454.592 307.361h57.739"/><path fill="#fff" fill-rule="evenodd" d="M454.592 312.716h57.739z" clip-rule="evenodd"/><path stroke="#000" stroke-width="1.252" d="M454.592 312.716h57.739"/><path fill="#fff" fill-rule="evenodd" d="M461.993 302.137v5.714z" clip-rule="evenodd"/><path stroke="#000" stroke-width="1.252" d="M461.993 302.137v5.714"/><path fill="#fff" fill-rule="evenodd" d="M466.999 307.491v5.714z" clip-rule="evenodd"/><path stroke="#000" stroke-width="1.252" d="M466.999 307.491v5.714"/><path fill="#fff" fill-rule="evenodd" d="M475.259 302.137v5.714z" clip-rule="evenodd"/><path stroke="#000" stroke-width="1.252" d="M475.259 302.137v5.714"/><path fill="#fff" fill-rule="evenodd" d="M480.265 307.491v5.714z" clip-rule="evenodd"/><path stroke="#000" stroke-width="1.252" d="M480.265 307.491v5.714"/><path fill="#fff" fill-rule="evenodd" d="M488.275 302.137v5.714z" clip-rule="evenodd"/><path stroke="#000" stroke-width="1.252" d="M488.275 302.137v5.714"/><path fill="#fff" fill-rule="evenodd" d="M493.281 307.491v5.714z" clip-rule="evenodd"/><path stroke="#000" stroke-width="1.252" d="M493.281 307.491v5.714"/><path fill="#fff" fill-rule="evenodd" d="M501.541 302.137v5.714z" clip-rule="evenodd"/><path stroke="#000" stroke-width="1.252" d="M501.541 302.137v5.714"/><path fill="#fff" fill-rule="evenodd" d="M506.547 307.491v5.714z" clip-rule="evenodd"/><path stroke="#000" stroke-width="1.252" d="M506.547 307.491v5.714"/></g><path fill="#eff5ff" stroke="#000" stroke-width="1.252" d="M151.775 105.755h35.204v63.702h-35.204z"/><rect width="51.632" height="6.891" x="143.561" y="101.211" fill="#eff5ff" stroke="#000" stroke-width="1.252" rx=".751"/><path fill="#eff5ff" fill-rule="evenodd" d="M186.476 108.102h-34.534v5.23h28.487v27.962h6.047z" clip-rule="evenodd" opacity=".199" style="mix-blend-mode:multiply"/><rect width="94.882" height="145.719" x="359.812" y="166.861" fill="#eff5ff" stroke="#000" stroke-width="1.252" rx=".751"/><mask id="b" width="97" height="148" x="359" y="166" maskUnits="userSpaceOnUse" style="mask-type:luminance"><rect width="94.882" height="145.719" x="359.812" y="166.861" fill="#fff" stroke="#fff" stroke-width="1.252" rx=".751"/></mask><g mask="url(#b)"><path fill="#fff" fill-rule="evenodd" d="M375.368 144.252v167.279z" clip-rule="evenodd"/><path stroke="#000" stroke-width="1.252" d="M375.368 144.252v167.279"/><path fill="#fff" fill-rule="evenodd" d="M392.115 144.252v167.279z" clip-rule="evenodd"/><path stroke="#000" stroke-width="1.252" d="M392.115 144.252v167.279"/><path fill="#fff" fill-rule="evenodd" d="M408.544 144.252v167.279z" clip-rule="evenodd"/><path stroke="#000" stroke-width="1.252" d="M408.544 144.252v167.279"/><path fill="#fff" fill-rule="evenodd" d="M424.972 144.252v167.279z" clip-rule="evenodd"/><path stroke="#000" stroke-width="1.252" d="M424.972 144.252v167.279"/><path fill="#fff" fill-rule="evenodd" d="M441.4 144.252v167.279z" clip-rule="evenodd"/><path stroke="#000" stroke-width="1.252" d="M441.4 144.252v167.279"/></g><rect width="94.569" height="11.399" x="359.968" y="167.242" fill="#eff5ff" opacity=".199" rx=".751" style="mix-blend-mode:multiply"/><rect width="102.71" height="6.284" x="355.898" y="166.861" fill="#eff5ff" stroke="#000" stroke-width="1.252" rx=".751"/><path fill="#eff5ff" fill-rule="evenodd" stroke="#000" stroke-width="1.252" d="m247.495 82.286 121.369 116.675-247.096.336z" clip-rule="evenodd"/><mask id="c" width="251" height="119" x="120" y="81" maskUnits="userSpaceOnUse" style="mask-type:luminance"><path fill="#fff" fill-rule="evenodd" stroke="#fff" stroke-width="1.252" d="m247.495 82.286 121.369 116.675-247.096.336z" clip-rule="evenodd"/></mask><g mask="url(#c)"><path stroke="#000" stroke-width="1.252" d="M131.806 82.969h229.516V96.27H131.806z"/><path stroke="#000" stroke-width="1.252" d="M131.937 96.269h229.516v13.301H131.937z"/><path stroke="#000" stroke-width="1.252" d="M131.937 109.345h229.516v13.301H131.937z"/><path stroke="#000" stroke-width="1.252" d="M131.937 122.421h229.516v13.301H131.937z"/><path stroke="#000" stroke-width="1.252" d="M131.937 135.497h229.516v13.301H131.937z"/><path stroke="#000" stroke-width="1.252" d="M131.937 148.572h229.516v13.301H131.937z"/><path stroke="#000" stroke-width="1.252" d="M131.937 161.648h229.516v13.301H131.937z"/><path stroke="#000" stroke-width="1.252" d="M131.937 174.724h229.516v13.301H131.937z"/><path stroke="#000" stroke-width="1.252" d="M131.937 187.799h229.516V201.1H131.937z"/><mask id="d" width="248" height="118" x="121" y="82" maskUnits="userSpaceOnUse" style="mask-type:luminance"><path fill="#fff" fill-rule="evenodd" d="m247.495 82.286 121.369 116.675-247.096.336z" clip-rule="evenodd"/></mask><g mask="url(#d)"><path fill="#eff5ff" d="M141.473 187.575h207.999v5.046H141.473zm0-13.247h207.999v5.046H141.473zm0-13.074h207.999v5.046H141.473zm0-13.016h207.999v5.046H141.473zm0-13.016h207.999v5.046H141.473zm0-13.015h207.999v5.046H141.473zm0-13.016h207.999v5.046H141.473z" opacity=".199" style="mix-blend-mode:multiply"/></g></g><path fill="#a8dadc" fill-rule="evenodd" stroke="#000" stroke-width="1.252" d="M227.462 230.893c0-.415.337-.751.751-.751h36.384a.75.75 0 0 1 .751.751v30.713a.75.75 0 0 1-.751.751h-36.384a.75.75 0 0 1-.751-.751z" clip-rule="evenodd"/><path fill="#eff5ff" fill-rule="evenodd" d="M227.755 235.189h37.496z" clip-rule="evenodd"/><path stroke="#000" stroke-width=".501" d="M227.755 235.189h37.496"/><path fill="#eff5ff" fill-rule="evenodd" d="M227.755 240.926h37.496z" clip-rule="evenodd"/><path stroke="#000" stroke-width=".501" d="M227.755 240.926h37.496"/><path fill="#eff5ff" fill-rule="evenodd" d="M227.755 246.663h37.496z" clip-rule="evenodd"/><path stroke="#000" stroke-width=".501" d="M227.755 246.663h37.496"/><path fill="#eff5ff" fill-rule="evenodd" d="M227.755 252.4h37.496z" clip-rule="evenodd"/><path stroke="#000" stroke-width=".501" d="M227.755 252.4h37.496"/><path fill="#eff5ff" fill-rule="evenodd" d="M227.755 258.137h37.496z" clip-rule="evenodd"/><path stroke="#000" stroke-width=".501" d="M227.755 258.137h37.496"/><path fill="#eff5ff" fill-rule="evenodd" d="M246.405 230.98v30.51z" clip-rule="evenodd"/><path stroke="#000" stroke-width="1.252" d="M246.405 230.98v30.51"/><rect width="41.909" height="3.382" x="225.548" y="262.328" fill="#eff5ff" stroke="#000" stroke-width="1.252" rx=".751"/><g style="mix-blend-mode:overlay"><path fill="#fff" fill-rule="evenodd" d="M234.832 239.945h2.377l-3.659 15.45h-2.429zm4.751 0h2.377l-3.554 15.45h-2.429z" clip-rule="evenodd" opacity=".536" style="mix-blend-mode:multiply"/></g><g style="mix-blend-mode:overlay"><path fill="#fff" fill-rule="evenodd" d="M253.3 239.945h2.377l-3.659 15.45h-2.429zm4.751 0h2.378l-3.555 15.45h-2.429z" clip-rule="evenodd" opacity=".536" style="mix-blend-mode:multiply"/></g><path fill="#eff5ff" fill-rule="evenodd" d="M265.544 262.357v-32.215h-37.886v2.745h34.835v29.47z" clip-rule="evenodd" opacity=".074" style="mix-blend-mode:multiply"/><rect width="42.936" height="3.908" x="223.629" y="264.675" fill="#eff5ff" opacity=".074" rx=".751" style="mix-blend-mode:multiply"/><path fill="#a8dadc" fill-rule="evenodd" stroke="#000" stroke-width="1.252" d="M294.265 230.893a.75.75 0 0 1 .751-.751H331.4a.75.75 0 0 1 .751.751v30.713a.75.75 0 0 1-.751.751h-36.384a.75.75 0 0 1-.751-.751z" clip-rule="evenodd"/><path fill="#eff5ff" fill-rule="evenodd" d="M294.558 235.189h37.495z" clip-rule="evenodd"/><path stroke="#000" stroke-width=".501" d="M294.558 235.189h37.495"/><path fill="#eff5ff" fill-rule="evenodd" d="M294.558 240.926h37.495z" clip-rule="evenodd"/><path stroke="#000" stroke-width=".501" d="M294.558 240.926h37.495"/><path fill="#eff5ff" fill-rule="evenodd" d="M294.558 246.663h37.495z" clip-rule="evenodd"/><path stroke="#000" stroke-width=".501" d="M294.558 246.663h37.495"/><path fill="#eff5ff" fill-rule="evenodd" d="M294.558 252.4h37.495z" clip-rule="evenodd"/><path stroke="#000" stroke-width=".501" d="M294.558 252.4h37.495"/><path fill="#eff5ff" fill-rule="evenodd" d="M294.558 258.137h37.495z" clip-rule="evenodd"/><path stroke="#000" stroke-width=".501" d="M294.558 258.137h37.495"/><path fill="#eff5ff" fill-rule="evenodd" d="M313.208 230.98v30.51z" clip-rule="evenodd"/><path stroke="#000" stroke-width="1.252" d="M313.208 230.98v30.51"/><rect width="41.909" height="3.382" x="292.546" y="262.328" fill="#eff5ff" stroke="#000" stroke-width="1.252" rx=".751"/><path fill="#eff5ff" fill-rule="evenodd" d="M332.346 262.357v-32.215H294.46v2.745h34.858v29.47z" clip-rule="evenodd" opacity=".074" style="mix-blend-mode:multiply"/><g style="mix-blend-mode:overlay"><path fill="#fff" fill-rule="evenodd" d="M301.969 239.741h2.378l-3.659 15.852h-2.43zm4.752 0h2.377l-3.554 15.852h-2.43z" clip-rule="evenodd" opacity=".536" style="mix-blend-mode:multiply"/></g><g style="mix-blend-mode:overlay"><path fill="#fff" fill-rule="evenodd" d="M320.103 239.741h2.377l-3.659 15.852h-2.429zm4.751 0h2.377l-3.554 15.852h-2.429z" clip-rule="evenodd" opacity=".536" style="mix-blend-mode:multiply"/></g><rect width="41.77" height="3.908" x="290.83" y="264.675" fill="#eff5ff" opacity=".074" rx=".751" style="mix-blend-mode:multiply"/><rect width="37.886" height="82.477" x="160.66" y="230.142" fill="#eff5ff" stroke="#000" stroke-width="1.252" rx=".751"/><rect width="46.343" height="5.029" x="156.431" y="307.59" fill="#eff5ff" stroke="#000" stroke-width="1.252" rx=".751"/><rect width="23.267" height="17.434" x="167.969" y="238.188" fill="#a8dadc" stroke="#000" stroke-width="1.252" rx=".751"/><g style="mix-blend-mode:overlay"><path fill="#fff" fill-rule="evenodd" d="M176.782 243.767h2.11l-3.247 8.384h-2.156zm4.216 0h2.11l-3.154 8.384h-2.156z" clip-rule="evenodd" opacity=".536" style="mix-blend-mode:multiply"/></g><path fill="#eff5ff" fill-rule="evenodd" d="M191.182 238.066h-23.159v3.243h20.053v13.897h3.106z" clip-rule="evenodd" opacity=".074" style="mix-blend-mode:multiply"/><path fill="#8ba660" fill-rule="evenodd" d="M192.678 270.542v5.365z" clip-rule="evenodd"/><path stroke="#000" stroke-linecap="round" stroke-width="1.252" d="M192.678 270.542v5.365"/><path fill="#eff5ff" fill-rule="evenodd" d="M198.21 230.142h-37.215v3.243h34.081v74.828h3.134z" clip-rule="evenodd" opacity=".074" style="mix-blend-mode:multiply"/><circle cx="213.004" cy="240.867" r="4.023" fill="#f9f3a5" stroke="#000" stroke-width="1.252"/><path fill="#eff5ff" fill-rule="evenodd" d="M210.639 237.318s.308 2.641 1.63 4.023c1.323 1.382 3.499 2.104 3.499 2.104s-2.626 2.221-5.104.094c-2.477-2.126-.025-6.221-.025-6.221" clip-rule="evenodd" opacity=".074" style="mix-blend-mode:multiply"/><circle cx="279.807" cy="240.867" r="4.023" fill="#f9f3a5" stroke="#000" stroke-width="1.252"/><path fill="#eff5ff" fill-rule="evenodd" d="M277.68 236.947s.308 2.642 1.63 4.024c1.323 1.381 3.499 2.104 3.499 2.104s-2.626 2.221-5.104.094c-2.477-2.126-.025-6.222-.025-6.222" clip-rule="evenodd" opacity=".074" style="mix-blend-mode:multiply"/><circle cx="246.476" cy="130.552" r="19.558" fill="#eff5ff" stroke="#000" stroke-width="1.252"/><circle cx="246.476" cy="130.552" r="14.739" fill="#a8dadc" stroke="#000" stroke-width="1.252"/><mask id="e" width="31" height="31" x="231" y="115" maskUnits="userSpaceOnUse" style="mask-type:luminance"><circle cx="246.476" cy="130.552" r="14.739" fill="#fff" stroke="#fff" stroke-width="1.252"/></mask><g mask="url(#e)"><path fill="#fff" fill-rule="evenodd" d="M246.589 115.927v29.027z" clip-rule="evenodd"/><path stroke="#000" stroke-width="1.252" d="M246.589 115.927v29.027"/><path fill="#fff" fill-rule="evenodd" d="M232.077 130.439h29.028z" clip-rule="evenodd"/><path stroke="#000" stroke-width="1.252" d="M232.077 130.439h29.028"/><g style="mix-blend-mode:overlay"><path fill="#fff" fill-rule="evenodd" d="M243.205 124.874h3.701l-5.695 11.648h-3.782zm7.396 0h3.701l-5.533 11.648h-3.782z" clip-rule="evenodd" opacity=".536" style="mix-blend-mode:multiply"/></g></g><ellipse cx="246.487" cy="123.022" fill="#eff5ff" opacity=".199" rx="14.97" ry="7.208" style="mix-blend-mode:multiply"/><rect width="5.447" height="8.362" x="148.885" y="259.666" fill="#eff5ff" stroke="#000" stroke-width="1.252" rx=".751"/><circle cx="151.567" cy="264.182" r=".67" fill="#000"/><path fill="#eff5ff" fill-rule="evenodd" d="M154.35 259.634h-4.944v1.752h3.046v6.256h2.094v-7.443h-.196z" clip-rule="evenodd" opacity=".074" style="mix-blend-mode:multiply"/><path fill="#eff5ff" stroke="#000" stroke-width="1.252" d="M139.202 198.961H351.43v13.411H139.202z"/><path fill="#eff5ff" fill-rule="evenodd" d="m137.258 200.565-6.773-9.981L245.274 83.637l.796.796.796-.796 114.789 106.947-6.773 9.981-108.812-99.249z" clip-rule="evenodd" opacity=".199" style="mix-blend-mode:multiply"/><path fill="#eff5ff" fill-rule="evenodd" d="M351.6 211.702H140.543v7.515h203.225v82.673h12.691v-88.847H351.6z" clip-rule="evenodd" opacity=".045" style="mix-blend-mode:multiply"/><path fill="#eff5ff" stroke="#000" stroke-width="1.252" d="M351.43 184.577h9.723v128.042h-9.723zm-220.945 0h9.723v128.042h-9.723z"/><path fill="#eff5ff" fill-rule="evenodd" d="M246.453 76.564a.75.75 0 0 0-.569.2L113.935 199.807a.75.75 0 0 0-.037 1.061l5.378 5.767a.75.75 0 0 0 1.061.037L246.453 89.069l126.115 117.604a.75.75 0 0 0 1.061-.037l5.378-5.767a.75.75 0 0 0-.037-1.061L247.021 76.763a.75.75 0 0 0-.568-.2" clip-rule="evenodd"/><path fill="#000" d="m245.884 76.763.427.458zm.569-.2-.047.625.047.003.047-.003zM113.935 199.809l.427.457zm-.037 1.061.458-.427zm5.378 5.767-.457.427zm1.061.037.427.458zM246.453 89.069l.426-.458-.426-.398-.427.398zm126.115 117.604.427-.457zm1.061-.037.458.427zm5.378-5.767-.457-.427zm-.037-1.061.427-.458zM247.021 76.763l-.426.458zm-.71.458a.12.12 0 0 1 .095-.033l.094-1.248a1.38 1.38 0 0 0-1.043.366zM114.362 200.265 246.311 77.221l-.854-.915L113.508 199.35zm-.006.177a.125.125 0 0 1 .006-.177l-.854-.915a1.38 1.38 0 0 0-.068 1.946zm5.378 5.767-5.378-5.767-.916.854 5.379 5.767zm.177.007a.125.125 0 0 1-.177-.007l-.915.854a1.376 1.376 0 0 0 1.945.068zM246.026 88.611 119.911 206.216l.853.915L246.879 89.527zm0 .915 126.115 117.605.854-.915L246.879 88.611zm126.115 117.605a1.38 1.38 0 0 0 1.946-.068l-.915-.854a.125.125 0 0 1-.177.007zm1.946-.068 5.378-5.767-.915-.854-5.379 5.767zm5.378-5.767a1.38 1.38 0 0 0-.068-1.946l-.854.915a.125.125 0 0 1 .007.177zm-.068-1.946L247.448 76.306l-.853.915 131.948 123.044zM247.448 76.306a1.38 1.38 0 0 0-1.042-.366l.094 1.248a.12.12 0 0 1 .095.033z"/><path fill="#eff5ff" fill-rule="evenodd" d="M312.494 282.002h15.772z" clip-rule="evenodd"/><path stroke="#e2ecde" stroke-linecap="round" stroke-width="1.252" d="M312.494 282.002h15.772"/><path fill="#eff5ff" fill-rule="evenodd" d="M312.494 286.765h25.146z" clip-rule="evenodd"/><path stroke="#e2ecde" stroke-linecap="round" stroke-width="1.252" d="M312.494 286.765h25.146"/><path fill="#eff5ff" fill-rule="evenodd" d="M307.8 291.277h25.146z" clip-rule="evenodd"/><path stroke="#e2ecde" stroke-linecap="round" stroke-width="1.252" d="M307.8 291.277h25.146"/><path fill="#eff5ff" fill-rule="evenodd" d="M317.188 282.236v3.976z" clip-rule="evenodd"/><path stroke="#e2ecde" stroke-width="1.252" d="M317.188 282.236v3.976"/><path fill="#eff5ff" fill-rule="evenodd" d="M321.276 287.202v3.977z" clip-rule="evenodd"/><path stroke="#e2ecde" stroke-width="1.252" d="M321.276 287.202v3.977"/><path fill="#eff5ff" fill-rule="evenodd" d="M326.371 282.236v3.976z" clip-rule="evenodd"/><path stroke="#e2ecde" stroke-width="1.252" d="M326.371 282.236v3.976"/><path fill="#eff5ff" fill-rule="evenodd" d="M330.458 287.202v3.977z" clip-rule="evenodd"/><path stroke="#e2ecde" stroke-width="1.252" d="M330.458 287.202v3.977"/><path fill="#eff5ff" fill-rule="evenodd" d="M263.635 296.504h-15.773z" clip-rule="evenodd"/><path stroke="#e2ecde" stroke-linecap="round" stroke-width="1.252" d="M263.635 296.504h-15.773"/><path fill="#eff5ff" fill-rule="evenodd" d="M263.635 301.267h-25.146z" clip-rule="evenodd"/><path stroke="#e2ecde" stroke-linecap="round" stroke-width="1.252" d="M263.635 301.267h-25.146"/><path fill="#eff5ff" fill-rule="evenodd" d="M268.328 305.779h-25.145z" clip-rule="evenodd"/><path stroke="#e2ecde" stroke-linecap="round" stroke-width="1.252" d="M268.328 305.779h-25.145"/><path fill="#eff5ff" fill-rule="evenodd" d="M258.941 296.738v3.976z" clip-rule="evenodd"/><path stroke="#e2ecde" stroke-width="1.252" d="M258.941 296.738v3.976"/><path fill="#eff5ff" fill-rule="evenodd" d="M254.853 301.704v3.977z" clip-rule="evenodd"/><path stroke="#e2ecde" stroke-width="1.252" d="M254.853 301.704v3.977"/><path fill="#eff5ff" fill-rule="evenodd" d="M249.758 296.738v3.976z" clip-rule="evenodd"/><path stroke="#e2ecde" stroke-width="1.252" d="M249.758 296.738v3.976"/><path fill="#eff5ff" fill-rule="evenodd" d="M245.67 301.704v3.977z" clip-rule="evenodd"/><path stroke="#e2ecde" stroke-width="1.252" d="M245.67 301.704v3.977"/><path fill="#8ba660" fill-rule="evenodd" d="M339.878 312.619q.012-.264.011-.531c0-6.997-5.672-12.669-12.669-12.669s-12.669 5.672-12.669 12.669q0 .267.011.531z" clip-rule="evenodd"/><path fill="#000" d="M339.878 312.619v.626h.601l.025-.6zm-25.316 0-.625.026.025.6h.6zm24.702-.531q0 .254-.011.505l1.251.052q.01-.278.011-.557zm-12.044-12.044c6.652 0 12.044 5.392 12.044 12.044h1.251c0-7.343-5.952-13.295-13.295-13.295zm-12.043 12.044c0-6.652 5.392-12.044 12.043-12.044v-1.251c-7.342 0-13.294 5.952-13.294 13.295zm.01.505q-.01-.251-.01-.505h-1.251q0 .28.011.557zm-.625.652h25.316v-1.252h-25.316z"/><path fill="#8ba660" fill-rule="evenodd" d="M367.037 312.619q.017-.415.017-.835c0-11-8.917-19.917-19.917-19.917s-19.917 8.917-19.917 19.917q0 .42.017.835z" clip-rule="evenodd"/><path fill="#000" d="M367.037 312.619v.626h.601l.024-.6zm-39.8 0-.625.026.025.6h.6zm39.192-.835q0 .407-.017.809l1.25.052q.018-.429.018-.861zm-19.292-19.291c10.655 0 19.292 8.637 19.292 19.291h1.251c0-11.345-9.197-20.543-20.543-20.543zm-19.291 19.291c0-10.654 8.637-19.291 19.291-19.291v-1.252c-11.345 0-20.543 9.198-20.543 20.543zm.017.809a20 20 0 0 1-.017-.809h-1.252q0 .432.018.861zm-.626.652h39.8v-1.252h-39.8z"/><path fill="#000b1c" fill-rule="evenodd" d="M325.071 300.047s-3.304 4.548-4.486 7.543-.543 5.197-.543 5.197h-5.364s-.102-5.056 2.682-8.372c2.785-3.316 7.711-4.368 7.711-4.368m15.975-6.734s-4.703 7.236-5.373 11.259c-.671 4.024 0 8.382 0 8.382l-8.163-.475s-.133-7.607 3.493-12.595 10.043-6.571 10.043-6.571" clip-rule="evenodd" opacity=".074" style="mix-blend-mode:multiply"/><path fill="#8ba660" fill-rule="evenodd" d="M493.174 312.632q.027-.662.027-1.33c0-17.534-14.214-31.748-31.748-31.748s-31.747 14.214-31.747 31.748q0 .668.027 1.33z" clip-rule="evenodd"/><path fill="#000" d="M493.174 312.632v.626h.6l.025-.6zm-63.441 0-.625.026.024.6h.601zm62.842-1.33q0 .656-.027 1.305l1.251.051q.027-.675.028-1.356zm-31.122-31.122c17.188 0 31.122 13.933 31.122 31.122h1.252c0-17.88-14.494-32.374-32.374-32.374zm-31.122 31.122c0-17.189 13.934-31.122 31.122-31.122v-1.252c-17.879 0-32.373 14.494-32.373 32.374zm.027 1.305a31 31 0 0 1-.027-1.305h-1.251q0 .681.028 1.356zm-.625.651h63.441v-1.251h-63.441z"/><path fill="#000b1c" fill-rule="evenodd" d="M451.342 281.438s-6.657 11.714-8.047 18.105c-1.39 6.392 1.268 13.076 1.268 13.076h-15.006s-1.063-6.694 6.002-18.434 15.783-12.747 15.783-12.747" clip-rule="evenodd" opacity=".074" style="mix-blend-mode:multiply"/><circle cx="73.871" cy="227.724" r="29.245" fill="#8ba660" stroke="#000" stroke-width="1.252"/><path fill="#8ba660" fill-rule="evenodd" d="M73.332 219.946v92.629z" clip-rule="evenodd"/><path stroke="#000" stroke-linecap="round" stroke-width="1.252" d="M73.332 219.946v92.629"/><path fill="#8ba660" fill-rule="evenodd" d="m73.934 240.636 12.205-7.538z" clip-rule="evenodd"/><path stroke="#000" stroke-linecap="round" stroke-width="1.252" d="m73.934 240.636 12.205-7.538"/><path fill="#8ba660" fill-rule="evenodd" d="m73.069 229.856-12.205-7.538z" clip-rule="evenodd"/><path stroke="#000" stroke-linecap="round" stroke-width="1.252" d="m73.069 229.856-12.205-7.538"/><circle cx="99.816" cy="268.672" r="13.498" fill="#8ba660" stroke="#000" stroke-width="1.252"/><path fill="#000b1c" fill-rule="evenodd" d="M51.831 208.621s-1.621 14.551 2.21 25.628S68.18 255.9 68.18 255.9s-17.233-3.977-21.651-18.116c-4.419-14.14 5.302-29.163 5.302-29.163m39.978 48.44s-1.838 7.253-.025 13.059c1.812 5.806 8.301 10.99 8.301 10.99s-10.049-.747-12.952-8.736c-2.903-7.988 4.676-15.313 4.676-15.313" clip-rule="evenodd" opacity=".074" style="mix-blend-mode:multiply"/><path fill="#8ba660" fill-rule="evenodd" d="m97.125 270.542 1.677-8.382z" clip-rule="evenodd"/><path stroke="#000" stroke-linecap="round" stroke-width="1.252" d="m97.125 270.542 1.677-8.382"/><path fill="#8ba660" fill-rule="evenodd" d="m73.512 281.917 27.999-13.282z" clip-rule="evenodd"/><path stroke="#000" stroke-linecap="round" stroke-width="1.252" d="m73.512 281.917 27.999-13.282"/></svg>