<svg xmlns="http://www.w3.org/2000/svg" width="633" height="314" fill="none" viewBox="0 0 633 314"><path fill="#70bcff" fill-rule="evenodd" d="M13.125 313.07s-37.819-75.628 33.335-149.023c63.576-65.578-11.013-71.586 60.572-128.904C152.515-1.275 213.59-6.318 251.455 6.108c96.866 31.788 64.327 80.847 137.665 95.614s106.813-21.89 147.176 12.265c75.09 63.541 32.556 199.083 32.556 199.083z" clip-rule="evenodd"/><path fill="#000" d="M13.81 312.496a.626.626 0 1 0 0 1.251zm11.692 1.251a.626.626 0 1 0 0-1.251zm10.075-1.251a.626.626 0 1 0 0 1.251zm497.6 1.251a.625.625 0 0 0 0-1.251zm6.106-1.227a.626.626 0 0 0 0 1.251zm9.389 1.251a.625.625 0 0 0 0-1.251zm3.884-1.275a.626.626 0 1 0 0 1.251zm16.449 1.251a.625.625 0 1 0 0-1.251zm-555.195 0h11.692v-1.251H13.81zm21.767 0h497.6v-1.251h-497.6zm503.706.024h9.389v-1.251h-9.389zm13.273-.024h16.449v-1.251h-16.449z"/><path fill="#f1faee" stroke="#000" stroke-width="1.252" d="M140.208 175.157h212.228v137.462H140.208zM360 199h244v114H360z"/><path fill="#eff5ff" stroke="#000" stroke-width="1.252" d="M151.775 105.755h35.204v63.702h-35.204z"/><rect width="51.632" height="6.891" x="143.561" y="101.211" fill="#eff5ff" stroke="#000" stroke-width="1.252" rx=".751"/><path fill="#eff5ff" fill-rule="evenodd" d="M186.476 108.102h-34.534v5.23h28.487v27.962h6.047z" clip-rule="evenodd" opacity=".199" style="mix-blend-mode:multiply"/><path fill="#eff5ff" fill-rule="evenodd" stroke="#000" stroke-width="1.252" d="M367.251 82.286 604 198.961l-482 .336z" clip-rule="evenodd"/><mask id="a" width="484" height="119" x="121" y="81" maskUnits="userSpaceOnUse" style="mask-type:luminance"><path fill="#fff" fill-rule="evenodd" stroke="#fff" stroke-width="1.252" d="M367.251 82.286 604 198.961l-482 .336z" clip-rule="evenodd"/></mask><g mask="url(#a)"><path stroke="#000" stroke-width="1.252" d="M141.581 82.969h447.706V96.27H141.581z"/><path stroke="#000" stroke-width="1.252" d="M141.837 96.269h447.706v13.301H141.837z"/><path stroke="#000" stroke-width="1.252" d="M141.837 109.345h447.706v13.301H141.837z"/><path stroke="#000" stroke-width="1.252" d="M141.837 122.421h447.706v13.301H141.837z"/><path stroke="#000" stroke-width="1.252" d="M141.837 135.497h447.706v13.301H141.837z"/><path stroke="#000" stroke-width="1.252" d="M141.837 148.572h447.706v13.301H141.837z"/><path stroke="#000" stroke-width="1.252" d="M141.837 161.648h447.706v13.301H141.837z"/><path stroke="#000" stroke-width="1.252" d="M141.837 174.724h447.706v13.301H141.837z"/><path stroke="#000" stroke-width="1.252" d="M141.837 187.799h447.706V201.1H141.837z"/><mask id="b" width="482" height="118" x="122" y="82" maskUnits="userSpaceOnUse" style="mask-type:luminance"><path fill="#fff" fill-rule="evenodd" d="M367.251 82.286 604 198.961l-482 .336z" clip-rule="evenodd"/></mask><g mask="url(#b)"><path fill="#eff5ff" d="M160.439 187.575h405.734v5.046H160.439zm0-13.247h405.734v5.046H160.439zm0-13.075h405.734v5.046H160.439zm0-13.015h405.734v5.046H160.439zm0-13.016h405.734v5.046H160.439zm0-13.015h405.734v5.046H160.439zm0-13.016h405.734v5.046H160.439z" opacity=".199" style="mix-blend-mode:multiply"/></g></g><path fill="#eff5ff" fill-rule="evenodd" stroke="#000" stroke-width="1.252" d="m247.495 82.286 121.369 116.675-247.096.336z" clip-rule="evenodd"/><mask id="c" width="251" height="119" x="120" y="81" maskUnits="userSpaceOnUse" style="mask-type:luminance"><path fill="#fff" fill-rule="evenodd" stroke="#fff" stroke-width="1.252" d="m247.495 82.286 121.369 116.675-247.096.336z" clip-rule="evenodd"/></mask><g mask="url(#c)"><path stroke="#000" stroke-width="1.252" d="M131.806 82.969h229.516V96.27H131.806z"/><path stroke="#000" stroke-width="1.252" d="M131.937 96.269h229.516v13.301H131.937z"/><path stroke="#000" stroke-width="1.252" d="M131.937 109.345h229.516v13.301H131.937z"/><path stroke="#000" stroke-width="1.252" d="M131.937 122.421h229.516v13.301H131.937z"/><path stroke="#000" stroke-width="1.252" d="M131.937 135.497h229.516v13.301H131.937z"/><path stroke="#000" stroke-width="1.252" d="M131.937 148.572h229.516v13.301H131.937z"/><path stroke="#000" stroke-width="1.252" d="M131.937 161.648h229.516v13.301H131.937z"/><path stroke="#000" stroke-width="1.252" d="M131.937 174.724h229.516v13.301H131.937z"/><path stroke="#000" stroke-width="1.252" d="M131.937 187.799h229.516V201.1H131.937z"/><mask id="d" width="248" height="118" x="121" y="82" maskUnits="userSpaceOnUse" style="mask-type:luminance"><path fill="#fff" fill-rule="evenodd" d="m247.495 82.286 121.369 116.675-247.096.336z" clip-rule="evenodd"/></mask><g mask="url(#d)"><path fill="#eff5ff" d="M141.473 187.575h207.999v5.046H141.473zm0-13.247h207.999v5.046H141.473zm0-13.075h207.999v5.046H141.473zm0-13.015h207.999v5.046H141.473zm0-13.016h207.999v5.046H141.473zm0-13.015h207.999v5.046H141.473zm0-13.016h207.999v5.046H141.473z" opacity=".199" style="mix-blend-mode:multiply"/></g></g><path fill="#a8dadc" fill-rule="evenodd" stroke="#000" stroke-width="1.252" d="M229.303 230.893a.75.75 0 0 1 .751-.751h90.447c.414 0 .751.336.751.751v30.713a.75.75 0 0 1-.751.751h-90.447a.75.75 0 0 1-.751-.751z" clip-rule="evenodd"/><path fill="#eff5ff" fill-rule="evenodd" d="M230.014 235.189h91.002z" clip-rule="evenodd"/><path stroke="#000" stroke-width=".501" d="M230.014 235.189h91.002"/><path fill="#eff5ff" fill-rule="evenodd" d="M230.014 240.926h91.002z" clip-rule="evenodd"/><path stroke="#000" stroke-width=".501" d="M230.014 240.926h91.002"/><path fill="#eff5ff" fill-rule="evenodd" d="M230.014 246.663h91.002z" clip-rule="evenodd"/><path stroke="#000" stroke-width=".501" d="M230.014 246.663h91.002"/><path fill="#eff5ff" fill-rule="evenodd" d="M230.014 252.4h91.002z" clip-rule="evenodd"/><path stroke="#000" stroke-width=".501" d="M230.014 252.4h91.002"/><path fill="#eff5ff" fill-rule="evenodd" d="M230.014 258.137h91.002z" clip-rule="evenodd"/><path stroke="#000" stroke-width=".501" d="M230.014 258.137h91.002"/><path fill="#eff5ff" fill-rule="evenodd" d="M275.277 230.98v30.51z" clip-rule="evenodd"/><path stroke="#000" stroke-width="1.252" d="M275.277 230.98v30.51"/><rect width="101.713" height="3.382" x="224.657" y="262.328" fill="#eff5ff" stroke="#000" stroke-width="1.252" rx=".751"/><g style="mix-blend-mode:overlay"><path fill="#fff" fill-rule="evenodd" d="M247.188 239.945h5.769l-8.879 15.45h-5.897zm11.531 0h5.77l-8.627 15.45h-5.896z" clip-rule="evenodd" opacity=".536" style="mix-blend-mode:multiply"/></g><g style="mix-blend-mode:overlay"><path fill="#fff" fill-rule="evenodd" d="M292.01 239.945h5.77l-8.88 15.45h-5.897zm11.531 0h5.77l-8.626 15.45h-5.897z" clip-rule="evenodd" opacity=".536" style="mix-blend-mode:multiply"/></g><path fill="#eff5ff" fill-rule="evenodd" d="M314.322 230.142h-84.545v2.745h84.545v29.47h7.404v-32.215z" clip-rule="evenodd" opacity=".074" style="mix-blend-mode:multiply"/><rect width="104.205" height="3.908" x="220" y="264.675" fill="#eff5ff" opacity=".074" rx=".751" style="mix-blend-mode:multiply"/><rect width="37.886" height="82.477" x="160.66" y="230.142" fill="#eff5ff" stroke="#000" stroke-width="1.252" rx=".751"/><rect width="46.343" height="5.029" x="156.431" y="307.59" fill="#eff5ff" stroke="#000" stroke-width="1.252" rx=".751"/><rect width="23.267" height="17.434" x="167.969" y="238.188" fill="#a8dadc" stroke="#000" stroke-width="1.252" rx=".751"/><g style="mix-blend-mode:overlay"><path fill="#fff" fill-rule="evenodd" d="M176.782 243.767h2.11l-3.247 8.384h-2.156zm4.216 0h2.11l-3.154 8.384h-2.156z" clip-rule="evenodd" opacity=".536" style="mix-blend-mode:multiply"/></g><path fill="#eff5ff" fill-rule="evenodd" d="M191.182 238.066h-23.159v3.243h20.053v13.897h3.106z" clip-rule="evenodd" opacity=".074" style="mix-blend-mode:multiply"/><path fill="#8ba660" fill-rule="evenodd" d="M192.678 270.542v5.365z" clip-rule="evenodd"/><path stroke="#000" stroke-linecap="round" stroke-width="1.252" d="M192.678 270.542v5.365"/><path fill="#eff5ff" fill-rule="evenodd" d="M198.21 230.142h-37.215v3.243h34.081v74.828h3.134z" clip-rule="evenodd" opacity=".074" style="mix-blend-mode:multiply"/><rect width="127.533" height="82.477" x="417.233" y="230.142" fill="#e1e1e1" stroke="#000" stroke-width="1.252" rx=".751"/><rect width="78.324" height="17.434" x="441.838" y="238.188" fill="#d6fdff" stroke="#000" stroke-width="1.252" rx=".751"/><g style="mix-blend-mode:overlay"><path fill="#fff" fill-rule="evenodd" d="M471.507 243.767h7.101l-10.929 8.384h-7.257zm14.193 0h7.101l-10.617 8.384h-7.257z" clip-rule="evenodd" opacity=".536" style="mix-blend-mode:multiply"/></g><path fill="#eff5ff" fill-rule="evenodd" d="M519.979 238.066H442.02v3.243h67.503v13.897h10.456z" clip-rule="evenodd" opacity=".074" style="mix-blend-mode:multiply"/><path fill="#8ba660" fill-rule="evenodd" d="M525.016 270.542v5.365z" clip-rule="evenodd"/><path stroke="#000" stroke-linecap="round" stroke-width="1.252" d="M525.016 270.542v5.365"/><path fill="#eff5ff" fill-rule="evenodd" d="M533.086 230.142H418.361v3.243h114.725v74.828h10.551v-78.071z" clip-rule="evenodd" opacity=".074" style="mix-blend-mode:multiply"/><circle cx="213.004" cy="240.867" r="4.023" fill="#f9f3a5" stroke="#000" stroke-width="1.252"/><path fill="#eff5ff" fill-rule="evenodd" d="M210.639 237.317s.308 2.642 1.63 4.024c1.323 1.381 3.499 2.103 3.499 2.103s-2.626 2.221-5.104.095c-2.477-2.126-.025-6.222-.025-6.222" clip-rule="evenodd" opacity=".074" style="mix-blend-mode:multiply"/><circle cx="333.43" cy="240.867" r="4.023" fill="#f9f3a5" stroke="#000" stroke-width="1.252"/><path fill="#eff5ff" fill-rule="evenodd" d="M331.064 237.317s.308 2.642 1.631 4.024c1.323 1.381 3.499 2.103 3.499 2.103s-2.627 2.221-5.104.095-.026-6.222-.026-6.222" clip-rule="evenodd" opacity=".074" style="mix-blend-mode:multiply"/><circle cx="246.476" cy="130.552" r="19.558" fill="#eff5ff" stroke="#000" stroke-width="1.252"/><circle cx="246.476" cy="130.552" r="14.739" fill="#a8dadc" stroke="#000" stroke-width="1.252"/><mask id="e" width="31" height="31" x="231" y="115" maskUnits="userSpaceOnUse" style="mask-type:luminance"><circle cx="246.476" cy="130.552" r="14.739" fill="#fff" stroke="#fff" stroke-width="1.252"/></mask><g mask="url(#e)"><path fill="#fff" fill-rule="evenodd" d="M246.589 115.927v29.027z" clip-rule="evenodd"/><path stroke="#000" stroke-width="1.252" d="M246.589 115.927v29.027"/><path fill="#fff" fill-rule="evenodd" d="M232.077 130.439h29.028z" clip-rule="evenodd"/><path stroke="#000" stroke-width="1.252" d="M232.077 130.439h29.028"/><g style="mix-blend-mode:overlay"><path fill="#fff" fill-rule="evenodd" d="M243.205 124.874h3.701l-5.695 11.648h-3.782zm7.396 0h3.701l-5.533 11.648h-3.782z" clip-rule="evenodd" opacity=".536" style="mix-blend-mode:multiply"/></g></g><ellipse cx="246.487" cy="123.022" fill="#eff5ff" opacity=".199" rx="14.97" ry="7.208" style="mix-blend-mode:multiply"/><rect width="5.447" height="8.362" x="148.885" y="259.666" fill="#eff5ff" stroke="#000" stroke-width="1.252" rx=".751"/><circle cx="151.567" cy="264.181" r=".67" fill="#000"/><path fill="#eff5ff" fill-rule="evenodd" d="M154.35 259.634h-4.944v1.752h3.046v6.256h2.094v-7.443h-.196z" clip-rule="evenodd" opacity=".074" style="mix-blend-mode:multiply"/><path fill="#eff5ff" stroke="#000" stroke-width="1.252" d="M139.202 198.961H351.43v13.411H139.202z"/><path fill="#eff5ff" fill-rule="evenodd" d="m137.258 200.566-6.773-9.982L245.274 83.637l.796.796.796-.796 114.789 106.947-6.773 9.982-108.812-99.25z" clip-rule="evenodd" opacity=".199" style="mix-blend-mode:multiply"/><path fill="#eff5ff" fill-rule="evenodd" d="M351.6 211.702H140.543v7.515h203.225v82.673h12.691v-88.847H351.6z" clip-rule="evenodd" opacity=".045" style="mix-blend-mode:multiply"/><path fill="#eff5ff" stroke="#000" stroke-width="1.252" d="M351.43 184.577h9.723v128.042h-9.723zm-220.945 0h9.723v128.042h-9.723z"/><path fill="#eff5ff" fill-rule="evenodd" d="M246.453 76.564a.75.75 0 0 0-.569.2L113.935 199.807a.75.75 0 0 0-.037 1.061l5.378 5.767a.75.75 0 0 0 1.061.037L246.453 89.069l126.115 117.604a.75.75 0 0 0 1.061-.037l5.378-5.767a.75.75 0 0 0-.037-1.061L247.021 76.763a.75.75 0 0 0-.568-.2" clip-rule="evenodd"/><path fill="#000" d="m245.884 76.763.427.458zm.569-.2-.047.625.047.003.047-.003zM113.935 199.809l.427.457zm-.037 1.061.458-.427zm5.378 5.767-.457.427zm1.061.037.427.458zM246.453 89.069l.426-.458-.426-.398-.427.398zm126.115 117.604.427-.457zm1.061-.037.458.427zm5.378-5.767-.457-.427zm-.037-1.061.427-.458zM247.021 76.763l-.426.458zm-.71.458a.12.12 0 0 1 .095-.033l.094-1.248a1.38 1.38 0 0 0-1.043.366zM114.362 200.265 246.311 77.221l-.854-.915L113.508 199.35zm-.006.177a.125.125 0 0 1 .006-.177l-.854-.915a1.38 1.38 0 0 0-.068 1.946zm5.378 5.767-5.378-5.767-.916.854 5.379 5.767zm.177.007a.125.125 0 0 1-.177-.007l-.915.854a1.376 1.376 0 0 0 1.945.068zM246.026 88.611 119.911 206.216l.853.915L246.879 89.527zm0 .915 126.115 117.605.854-.915L246.879 88.611zm126.115 117.605a1.38 1.38 0 0 0 1.946-.068l-.915-.854a.125.125 0 0 1-.177.007zm1.946-.068 5.378-5.767-.915-.854-5.379 5.767zm5.378-5.767a1.38 1.38 0 0 0-.068-1.946l-.854.915a.125.125 0 0 1 .007.177zm-.068-1.946L247.448 76.306l-.853.915 131.948 123.044zM247.448 76.306a1.38 1.38 0 0 0-1.042-.366l.094 1.248a.12.12 0 0 1 .095.033z"/><path fill="#eff5ff" fill-rule="evenodd" d="M312.494 282.002h15.772z" clip-rule="evenodd"/><path stroke="#e2ecde" stroke-linecap="round" stroke-width="1.252" d="M312.494 282.002h15.772"/><path fill="#eff5ff" fill-rule="evenodd" d="M312.494 286.765h25.146z" clip-rule="evenodd"/><path stroke="#e2ecde" stroke-linecap="round" stroke-width="1.252" d="M312.494 286.765h25.146"/><path fill="#eff5ff" fill-rule="evenodd" d="M307.8 291.277h25.146z" clip-rule="evenodd"/><path stroke="#e2ecde" stroke-linecap="round" stroke-width="1.252" d="M307.8 291.277h25.146"/><path fill="#eff5ff" fill-rule="evenodd" d="M317.188 282.236v3.976z" clip-rule="evenodd"/><path stroke="#e2ecde" stroke-width="1.252" d="M317.188 282.236v3.976"/><path fill="#eff5ff" fill-rule="evenodd" d="M321.276 287.202v3.977z" clip-rule="evenodd"/><path stroke="#e2ecde" stroke-width="1.252" d="M321.276 287.202v3.977"/><path fill="#eff5ff" fill-rule="evenodd" d="M326.371 282.236v3.976z" clip-rule="evenodd"/><path stroke="#e2ecde" stroke-width="1.252" d="M326.371 282.236v3.976"/><path fill="#eff5ff" fill-rule="evenodd" d="M330.458 287.202v3.977z" clip-rule="evenodd"/><path stroke="#e2ecde" stroke-width="1.252" d="M330.458 287.202v3.977"/><path fill="#eff5ff" fill-rule="evenodd" d="M263.635 296.504h-15.773z" clip-rule="evenodd"/><path stroke="#e2ecde" stroke-linecap="round" stroke-width="1.252" d="M263.635 296.504h-15.773"/><path fill="#eff5ff" fill-rule="evenodd" d="M263.635 301.267h-25.146z" clip-rule="evenodd"/><path stroke="#e2ecde" stroke-linecap="round" stroke-width="1.252" d="M263.635 301.267h-25.146"/><path fill="#eff5ff" fill-rule="evenodd" d="M268.328 305.779h-25.145z" clip-rule="evenodd"/><path stroke="#e2ecde" stroke-linecap="round" stroke-width="1.252" d="M268.328 305.779h-25.145"/><path fill="#eff5ff" fill-rule="evenodd" d="M258.941 296.738v3.976z" clip-rule="evenodd"/><path stroke="#e2ecde" stroke-width="1.252" d="M258.941 296.738v3.976"/><path fill="#eff5ff" fill-rule="evenodd" d="M254.853 301.704v3.977z" clip-rule="evenodd"/><path stroke="#e2ecde" stroke-width="1.252" d="M254.853 301.704v3.977"/><path fill="#eff5ff" fill-rule="evenodd" d="M249.758 296.738v3.976z" clip-rule="evenodd"/><path stroke="#e2ecde" stroke-width="1.252" d="M249.758 296.738v3.976"/><path fill="#eff5ff" fill-rule="evenodd" d="M245.67 301.704v3.977z" clip-rule="evenodd"/><path stroke="#e2ecde" stroke-width="1.252" d="M245.67 301.704v3.977"/><path fill="#8ba660" fill-rule="evenodd" d="M339.878 312.619q.012-.264.011-.531c0-6.997-5.672-12.669-12.669-12.669s-12.669 5.672-12.669 12.669q0 .267.011.531z" clip-rule="evenodd"/><path fill="#000" d="M339.878 312.619v.626h.601l.025-.6zm-25.316 0-.625.026.025.6h.6zm24.702-.531q0 .254-.011.505l1.251.052a15 15 0 0 0 .011-.557zm-12.044-12.043c6.652 0 12.044 5.392 12.044 12.043h1.251c0-7.343-5.952-13.295-13.295-13.295zm-12.043 12.043c0-6.651 5.392-12.043 12.043-12.043v-1.252c-7.342 0-13.294 5.952-13.294 13.295zm.01.505q-.01-.251-.01-.505h-1.251q0 .28.011.557zm-.625.652h25.316v-1.252h-25.316z"/><path fill="#8ba660" fill-rule="evenodd" d="M367.037 312.619q.017-.415.017-.835c0-11-8.917-19.917-19.917-19.917s-19.917 8.917-19.917 19.917q0 .42.017.835z" clip-rule="evenodd"/><path fill="#000" d="M367.037 312.619v.626h.601l.024-.6zm-39.8 0-.625.026.025.6h.6zm39.192-.835q0 .407-.017.809l1.25.052a21 21 0 0 0 .018-.861zm-19.292-19.291c10.655 0 19.292 8.637 19.292 19.291h1.251c0-11.345-9.197-20.543-20.543-20.543zm-19.291 19.291c0-10.654 8.637-19.291 19.291-19.291v-1.252c-11.345 0-20.543 9.198-20.543 20.543zm.017.809a20 20 0 0 1-.017-.809h-1.252q0 .433.018.861zm-.626.652h39.8v-1.252h-39.8z"/><path fill="#eff5ff" fill-rule="evenodd" d="M325.071 300.047s-3.304 4.549-4.486 7.543-.543 5.197-.543 5.197h-5.364s-.102-5.056 2.682-8.372c2.785-3.316 7.711-4.368 7.711-4.368m15.975-6.734s-4.703 7.236-5.373 11.26c-.671 4.023 0 8.381 0 8.381l-8.163-.475s-.133-7.606 3.493-12.595c3.627-4.988 10.043-6.571 10.043-6.571" clip-rule="evenodd" opacity=".074" style="mix-blend-mode:multiply"/><path fill="#8ba660" fill-rule="evenodd" d="M631.756 312.632q.027-.662.027-1.331c0-17.533-14.214-31.747-31.748-31.747s-31.747 14.214-31.747 31.747q0 .67.027 1.331z" clip-rule="evenodd"/><path fill="#000" d="M631.756 312.632v.626h.6l.025-.6zm-63.441 0-.625.026.025.6h.6zm62.842-1.331q0 .657-.027 1.305l1.251.052q.028-.675.028-1.357zm-31.122-31.122c17.188 0 31.122 13.934 31.122 31.122h1.252c0-17.879-14.494-32.373-32.374-32.373zm-31.122 31.122c0-17.188 13.934-31.122 31.122-31.122v-1.251c-17.879 0-32.373 14.494-32.373 32.373zm.027 1.305a31 31 0 0 1-.027-1.305h-1.251q0 .682.028 1.357zm-.625.652h63.441v-1.252h-63.441z"/><path fill="#eff5ff" fill-rule="evenodd" d="M589.924 281.438s-6.657 11.714-8.047 18.105c-1.389 6.392 1.268 13.076 1.268 13.076h-15.006s-1.063-6.694 6.002-18.434 15.783-12.747 15.783-12.747" clip-rule="evenodd" opacity=".074" style="mix-blend-mode:multiply"/><circle cx="74.291" cy="181.291" r="45.291" fill="#8ba660" stroke="#000" stroke-width="1.938"/><path fill="#8ba660" fill-rule="evenodd" d="M73.457 169.245v143.451z" clip-rule="evenodd"/><path stroke="#000" stroke-linecap="round" stroke-width="1.938" d="M73.457 169.245v143.451"/><path fill="#8ba660" fill-rule="evenodd" d="m74.39 201.287 18.9-11.674z" clip-rule="evenodd"/><path stroke="#000" stroke-linecap="round" stroke-width="1.938" d="m74.39 201.287 18.9-11.674"/><path fill="#8ba660" fill-rule="evenodd" d="m73.048 184.592-18.9-11.674z" clip-rule="evenodd"/><path stroke="#000" stroke-linecap="round" stroke-width="1.938" d="m73.048 184.592-18.9-11.674"/><circle cx="114.471" cy="244.705" r="20.903" fill="#8ba660" stroke="#000" stroke-width="1.938"/><path fill="#eff5ff" fill-rule="evenodd" d="M40.16 151.707s-2.511 22.533 3.42 39.688c5.933 17.156 21.898 33.531 21.898 33.531s-26.687-6.159-33.53-28.056 8.212-45.163 8.212-45.163m61.911 75.017s-2.846 11.232-.039 20.223 12.855 17.02 12.855 17.02-15.56-1.157-20.057-13.528 7.241-23.715 7.241-23.715" clip-rule="evenodd" opacity=".074" style="mix-blend-mode:multiply"/><path fill="#8ba660" fill-rule="evenodd" d="m110.304 247.601 2.596-12.981z" clip-rule="evenodd"/><path stroke="#000" stroke-linecap="round" stroke-width="1.938" d="m110.304 247.601 2.596-12.981"/><path fill="#8ba660" fill-rule="evenodd" d="m73.735 265.217 43.36-20.568z" clip-rule="evenodd"/><path stroke="#000" stroke-linecap="round" stroke-width="1.938" d="m73.735 265.217 43.36-20.568"/></svg>