<svg xmlns="http://www.w3.org/2000/svg" width="585" height="313" fill="none" viewBox="0 0 585 313"><g clip-path="url(#a)"><path fill="#70bcff" fill-rule="evenodd" d="M13.125 313.07s-37.819-75.628 33.335-149.023c63.576-65.578-11.013-71.586 60.572-128.904C152.515-1.275 213.59-6.318 251.455 6.108c96.866 31.788 64.327 80.847 137.665 95.614s106.813-21.89 147.176 12.265c75.09 63.541 32.556 199.083 32.556 199.083z" clip-rule="evenodd"/><path fill="#000" d="M13.81 312.496a.626.626 0 1 0 0 1.252zm11.691 1.252a.626.626 0 0 0 0-1.252zm10.076-1.252a.626.626 0 1 0 0 1.252zm497.6 1.252a.626.626 0 0 0 0-1.252zm6.106-1.228a.626.626 0 0 0 0 1.251zm9.389 1.251a.625.625 0 0 0 0-1.251zm3.884-1.275a.626.626 0 1 0 0 1.252zm16.449 1.252a.626.626 0 0 0 0-1.252zm-555.195 0H25.5v-1.252H13.81zm21.767 0h497.6v-1.252h-497.6zm503.706.023h9.389v-1.251h-9.389zm13.273-.023h16.449v-1.252h-16.449z"/><path fill="#f1faee" stroke="#000" stroke-width="1.252" d="M352.436 175.157H140.208v137.462h212.228z"/><path fill="#eff5ff" stroke="#000" stroke-width="1.252" d="M512.033 187.071h-56.836a.75.75 0 0 0-.751.751v124.632a.75.75 0 0 0 .751.751h56.836a.75.75 0 0 0 .75-.751V187.822a.75.75 0 0 0-.75-.751Z"/><mask id="b" width="61" height="128" x="453" y="186" maskUnits="userSpaceOnUse" style="mask-type:luminance"><path fill="#fff" stroke="#fff" stroke-width="1.252" d="M512.033 187.071h-56.836a.75.75 0 0 0-.751.751v124.632a.75.75 0 0 0 .751.751h56.836a.75.75 0 0 0 .75-.751V187.822a.75.75 0 0 0-.75-.751Z"/></mask><g stroke="#000" stroke-width="1.252" mask="url(#b)"><path d="M454.592 191.527h57.739m-57.739 10.709h57.739m-57.739-5.355h57.739m-57.739 10.709h57.739m-50.338-21.288v5.714m0 4.995v5.714m5.006-11.069v5.715m0 4.994v5.714m8.26-21.777v5.714m0 4.995v5.714m5.006-11.069v5.715m0 4.994v5.714m8.01-21.777v5.714m0 4.995v5.714m5.006-11.069v5.715m0 4.994v5.714m8.26-21.777v5.714m0 4.995v5.714m5.006-11.069v5.715m0 4.994v5.714m-51.955 4.669h57.739m-57.739 5.354h57.739m-50.338-10.579v5.714m5.006-.359v5.714m8.26-11.069v5.714m5.006-.359v5.714m8.01-11.069v5.714m5.006-.359v5.714m8.26-11.069v5.714m5.006-.359v5.714m-51.955 4.669h57.739m-57.739 5.354h57.739m-50.338-10.579v5.714m5.006-.36v5.714m8.26-11.068v5.714m5.006-.36v5.714m8.01-11.068v5.714m5.006-.36v5.714m8.26-11.068v5.714m5.006-.36v5.714m-51.955 4.669h57.739m-57.739 5.355h57.739m-50.338-10.58v5.715m5.006-.36v5.714m8.26-11.069v5.715m5.006-.36v5.714m8.01-11.069v5.715m5.006-.36v5.714m8.26-11.069v5.715m5.006-.36v5.714m-51.955 4.669h57.739m-57.739 5.354h57.739m-50.338-10.579v5.714m5.006-.36v5.715m8.26-11.069v5.714m5.006-.36v5.715m8.01-11.069v5.714m5.006-.36v5.715m8.26-11.069v5.714m5.006-.36v5.715m-51.955 4.669h57.739m-57.739 5.354h57.739m-50.338-10.579v5.714m5.006-.36v5.714m8.26-11.068v5.714m5.006-.36v5.714m8.01-11.068v5.714m5.006-.36v5.714m8.26-11.068v5.714m5.006-.36v5.714m-51.955 4.669h57.739m-57.739 5.354h57.739m-50.338-10.579v5.714m5.006-.359v5.714m8.26-11.069v5.714m5.006-.359v5.714m8.01-11.069v5.714m5.006-.359v5.714m8.26-11.069v5.714m5.006-.359v5.714m-51.955 4.669h57.739m-57.739 5.354h57.739m-50.338-10.579v5.714m5.006-.36v5.714m8.26-11.068v5.714m5.006-.36v5.714m8.01-11.068v5.714m5.006-.36v5.714m8.26-11.068v5.714m5.006-.36v5.714m-51.955 4.669h57.739m-57.739 5.355h57.739m-50.338-10.58v5.715m5.006-.36v5.714m8.26-11.069v5.715m5.006-.36v5.714m8.01-11.069v5.715m5.006-.36v5.714m8.26-11.069v5.715m5.006-.36v5.714m-51.955 4.669h57.739m-57.739 5.354h57.739m-50.338-10.579v5.714m5.006-.36v5.715m8.26-11.069v5.714m5.006-.36v5.715m8.01-11.069v5.714m5.006-.36v5.715m8.26-11.069v5.714m5.006-.36v5.715m-51.955 4.668h57.739m-57.739 5.355h57.739m-50.338-10.579v5.714m5.006-.36v5.714m8.26-11.068v5.714m5.006-.36v5.714m8.01-11.068v5.714m5.006-.36v5.714m8.26-11.068v5.714m5.006-.36v5.714"/></g><path fill="#eff5ff" stroke="#000" stroke-width="1.252" d="M186.979 105.755h-35.204v63.702h35.204z"/><path fill="#eff5ff" stroke="#000" stroke-width="1.252" d="M194.442 101.211h-50.13a.75.75 0 0 0-.751.751v5.389a.75.75 0 0 0 .751.751h50.13a.75.75 0 0 0 .751-.751v-5.389a.75.75 0 0 0-.751-.751Z"/><path fill="#eff5ff" fill-rule="evenodd" d="M186.476 108.102h-34.534v5.23h28.487v27.962h6.047z" clip-rule="evenodd" opacity=".199" style="mix-blend-mode:multiply"/><path fill="#eff5ff" stroke="#000" stroke-width="1.252" d="M453.944 166.861h-93.381a.75.75 0 0 0-.751.751v144.217a.75.75 0 0 0 .751.751h93.381a.75.75 0 0 0 .75-.751V167.612a.75.75 0 0 0-.75-.751Z"/><mask id="c" width="97" height="148" x="359" y="166" maskUnits="userSpaceOnUse" style="mask-type:luminance"><path fill="#fff" stroke="#fff" stroke-width="1.252" d="M453.944 166.861h-93.381a.75.75 0 0 0-.751.751v144.217a.75.75 0 0 0 .751.751h93.381a.75.75 0 0 0 .75-.751V167.612a.75.75 0 0 0-.75-.751Z"/></mask><g stroke="#000" stroke-width="1.252" mask="url(#c)"><path d="M375.368 144.252v167.279m16.747-167.279v167.279m16.429-167.279v167.279m16.428-167.279v167.279M441.4 144.252v167.279"/></g><path fill="#eff5ff" d="M453.786 167.242h-93.067a.75.75 0 0 0-.751.751v9.898c0 .414.336.75.751.75h93.067a.75.75 0 0 0 .751-.75v-9.898a.75.75 0 0 0-.751-.751" opacity=".199" style="mix-blend-mode:multiply"/><path fill="#eff5ff" stroke="#000" stroke-width="1.252" d="M457.857 166.861H356.649a.75.75 0 0 0-.751.751v4.782a.75.75 0 0 0 .751.751h101.208a.75.75 0 0 0 .751-.751v-4.782a.75.75 0 0 0-.751-.751Z"/><path fill="#eff5ff" fill-rule="evenodd" stroke="#000" stroke-width="1.252" d="m247.495 82.286 121.369 116.675-247.096.336z" clip-rule="evenodd"/><mask id="d" width="251" height="119" x="120" y="81" maskUnits="userSpaceOnUse" style="mask-type:luminance"><path fill="#fff" fill-rule="evenodd" stroke="#fff" stroke-width="1.252" d="m247.495 82.286 121.369 116.675-247.096.336z" clip-rule="evenodd"/></mask><g mask="url(#d)"><path stroke="#000" stroke-width="1.252" d="M361.322 82.969H131.806v13.3h229.516zm.131 13.301H131.937v13.3h229.516z"/><path stroke="#000" stroke-width="1.252" d="M361.453 109.345H131.937v13.301h229.516z"/><path stroke="#000" stroke-width="1.252" d="M361.453 122.421H131.937v13.301h229.516z"/><path stroke="#000" stroke-width="1.252" d="M361.453 135.497H131.937v13.301h229.516z"/><path stroke="#000" stroke-width="1.252" d="M361.453 148.572H131.937v13.301h229.516z"/><path stroke="#000" stroke-width="1.252" d="M361.453 161.648H131.937v13.301h229.516z"/><path stroke="#000" stroke-width="1.252" d="M361.453 174.724H131.937v13.301h229.516z"/><path stroke="#000" stroke-width="1.252" d="M361.453 187.799H131.937V201.1h229.516z"/><mask id="e" width="248" height="118" x="121" y="82" maskUnits="userSpaceOnUse" style="mask-type:luminance"><path fill="#fff" fill-rule="evenodd" d="m247.495 82.286 121.369 116.675-247.096.336z" clip-rule="evenodd"/></mask><g mask="url(#e)"><path fill="#eff5ff" d="M349.472 187.575H141.473v5.046h207.999zm0-13.247H141.473v5.046h207.999zm0-13.074H141.473v5.046h207.999zm0-13.016H141.473v5.046h207.999zm0-13.016H141.473v5.046h207.999zm0-13.015H141.473v5.046h207.999zm0-13.016H141.473v5.046h207.999z" opacity=".199" style="mix-blend-mode:multiply"/></g></g><path fill="#a8dadc" fill-rule="evenodd" stroke="#000" stroke-width="1.252" d="M227.462 230.893c0-.415.337-.751.751-.751h36.384a.75.75 0 0 1 .751.751v30.713a.75.75 0 0 1-.751.751h-36.384a.75.75 0 0 1-.751-.751z" clip-rule="evenodd"/><path stroke="#000" stroke-width=".501" d="M227.755 235.189h37.496m-37.496 5.737h37.496m-37.496 5.737h37.496m-37.496 5.737h37.496m-37.496 5.737h37.496"/><path stroke="#000" stroke-width="1.252" d="M246.405 230.98v30.51"/><path fill="#eff5ff" stroke="#000" stroke-width="1.252" d="M266.706 262.328h-40.407a.75.75 0 0 0-.751.751v1.88a.75.75 0 0 0 .751.751h40.407a.75.75 0 0 0 .751-.751v-1.88a.75.75 0 0 0-.751-.751Z"/><g style="mix-blend-mode:overlay"><path fill="#fff" fill-rule="evenodd" d="M234.832 239.945h2.377l-3.659 15.45h-2.429zm4.751 0h2.377l-3.554 15.45h-2.429z" clip-rule="evenodd" opacity=".536" style="mix-blend-mode:multiply"/></g><g style="mix-blend-mode:overlay"><path fill="#fff" fill-rule="evenodd" d="M253.3 239.945h2.377l-3.659 15.45h-2.429zm4.751 0h2.378l-3.555 15.45h-2.429z" clip-rule="evenodd" opacity=".536" style="mix-blend-mode:multiply"/></g><path fill="#eff5ff" fill-rule="evenodd" d="M265.544 262.357v-32.215h-37.886v2.745h34.835v29.47z" clip-rule="evenodd" opacity=".074" style="mix-blend-mode:multiply"/><path fill="#eff5ff" d="M265.814 264.675H224.38a.75.75 0 0 0-.751.751v2.406a.75.75 0 0 0 .751.751h41.434a.75.75 0 0 0 .751-.751v-2.406a.75.75 0 0 0-.751-.751" opacity=".074" style="mix-blend-mode:multiply"/><path fill="#a8dadc" fill-rule="evenodd" stroke="#000" stroke-width="1.252" d="M294.265 230.893a.75.75 0 0 1 .751-.751H331.4a.75.75 0 0 1 .751.751v30.713a.75.75 0 0 1-.751.751h-36.384a.75.75 0 0 1-.751-.751z" clip-rule="evenodd"/><path stroke="#000" stroke-width=".501" d="M294.558 235.189h37.495m-37.495 5.737h37.495m-37.495 5.737h37.495m-37.495 5.737h37.495m-37.495 5.737h37.495"/><path stroke="#000" stroke-width="1.252" d="M313.208 230.98v30.51"/><path fill="#eff5ff" stroke="#000" stroke-width="1.252" d="M333.704 262.328h-40.407a.75.75 0 0 0-.751.751v1.88a.75.75 0 0 0 .751.751h40.407a.75.75 0 0 0 .751-.751v-1.88a.75.75 0 0 0-.751-.751Z"/><path fill="#eff5ff" fill-rule="evenodd" d="M332.346 262.357v-32.215H294.46v2.745h34.858v29.47z" clip-rule="evenodd" opacity=".074" style="mix-blend-mode:multiply"/><g style="mix-blend-mode:overlay"><path fill="#fff" fill-rule="evenodd" d="M301.969 239.741h2.378l-3.659 15.852h-2.43zm4.752 0h2.377l-3.554 15.852h-2.43z" clip-rule="evenodd" opacity=".536" style="mix-blend-mode:multiply"/></g><g style="mix-blend-mode:overlay"><path fill="#fff" fill-rule="evenodd" d="M320.103 239.741h2.377l-3.659 15.852h-2.429zm4.751 0h2.377l-3.554 15.852h-2.429z" clip-rule="evenodd" opacity=".536" style="mix-blend-mode:multiply"/></g><path fill="#eff5ff" d="M331.849 264.675h-40.268a.75.75 0 0 0-.751.751v2.406a.75.75 0 0 0 .751.751h40.268a.75.75 0 0 0 .751-.751v-2.406a.75.75 0 0 0-.751-.751" opacity=".074" style="mix-blend-mode:multiply"/><path fill="#eff5ff" stroke="#000" stroke-width="1.252" d="M197.795 230.142h-36.384a.75.75 0 0 0-.751.751v80.975a.75.75 0 0 0 .751.751h36.384a.75.75 0 0 0 .751-.751v-80.975a.75.75 0 0 0-.751-.751Z"/><path fill="#eff5ff" stroke="#000" stroke-width="1.252" d="M202.023 307.59h-44.841a.75.75 0 0 0-.751.751v3.527a.75.75 0 0 0 .751.751h44.841a.75.75 0 0 0 .751-.751v-3.527a.75.75 0 0 0-.751-.751Z"/><path fill="#a8dadc" stroke="#000" stroke-width="1.252" d="M190.485 238.188H168.72a.75.75 0 0 0-.751.751v15.932a.75.75 0 0 0 .751.751h21.765a.75.75 0 0 0 .751-.751v-15.932a.75.75 0 0 0-.751-.751Z"/><g style="mix-blend-mode:overlay"><path fill="#fff" fill-rule="evenodd" d="M176.782 243.767h2.11l-3.247 8.384h-2.156zm4.216 0h2.11l-3.154 8.384h-2.156z" clip-rule="evenodd" opacity=".536" style="mix-blend-mode:multiply"/></g><path fill="#eff5ff" fill-rule="evenodd" d="M191.182 238.066h-23.159v3.243h20.053v13.897h3.106z" clip-rule="evenodd" opacity=".074" style="mix-blend-mode:multiply"/><path stroke="#000" stroke-linecap="round" stroke-width="1.252" d="M192.678 270.542v5.365"/><path fill="#eff5ff" fill-rule="evenodd" d="M198.21 230.142h-37.215v3.243h34.081v74.828h3.134z" clip-rule="evenodd" opacity=".074" style="mix-blend-mode:multiply"/><path fill="#f9f3a5" stroke="#000" stroke-width="1.252" d="M213.004 244.89a4.023 4.023 0 1 0 0-8.046 4.023 4.023 0 0 0 0 8.046Z"/><path fill="#eff5ff" fill-rule="evenodd" d="M210.639 237.318s.308 2.641 1.63 4.023c1.323 1.382 3.499 2.104 3.499 2.104s-2.626 2.221-5.104.094c-2.477-2.126-.025-6.221-.025-6.221" clip-rule="evenodd" opacity=".074" style="mix-blend-mode:multiply"/><path fill="#f9f3a5" stroke="#000" stroke-width="1.252" d="M279.807 244.89a4.023 4.023 0 1 0 0-8.046 4.023 4.023 0 0 0 0 8.046Z"/><path fill="#eff5ff" fill-rule="evenodd" d="M277.68 236.947s.308 2.642 1.63 4.024c1.323 1.381 3.499 2.104 3.499 2.104s-2.626 2.221-5.104.094c-2.477-2.126-.025-6.222-.025-6.222" clip-rule="evenodd" opacity=".074" style="mix-blend-mode:multiply"/><path fill="#eff5ff" stroke="#000" stroke-width="1.252" d="M246.476 150.11c10.802 0 19.558-8.756 19.558-19.558s-8.756-19.558-19.558-19.558-19.558 8.757-19.558 19.558 8.756 19.558 19.558 19.558Z"/><path fill="#a8dadc" stroke="#000" stroke-width="1.252" d="M246.476 145.291c8.14 0 14.739-6.599 14.739-14.739s-6.599-14.739-14.739-14.739-14.739 6.599-14.739 14.739 6.599 14.739 14.739 14.739Z"/><mask id="f" width="31" height="31" x="231" y="115" maskUnits="userSpaceOnUse" style="mask-type:luminance"><path fill="#fff" stroke="#fff" stroke-width="1.252" d="M246.476 145.291c8.14 0 14.739-6.599 14.739-14.739s-6.599-14.739-14.739-14.739-14.739 6.599-14.739 14.739 6.599 14.739 14.739 14.739Z"/></mask><g mask="url(#f)"><path stroke="#000" stroke-width="1.252" d="M246.589 115.927v29.027m-14.512-14.515h29.028"/><g style="mix-blend-mode:overlay"><path fill="#fff" fill-rule="evenodd" d="M243.205 124.874h3.701l-5.695 11.648h-3.782zm7.396 0h3.701l-5.533 11.648h-3.782z" clip-rule="evenodd" opacity=".536" style="mix-blend-mode:multiply"/></g></g><path fill="#eff5ff" d="M246.487 130.23c8.268 0 14.97-3.227 14.97-7.208s-6.702-7.209-14.97-7.209-14.97 3.228-14.97 7.209 6.702 7.208 14.97 7.208" opacity=".199" style="mix-blend-mode:multiply"/><path fill="#eff5ff" stroke="#000" stroke-width="1.252" d="M153.581 259.666h-3.945a.75.75 0 0 0-.751.751v6.86c0 .414.336.751.751.751h3.945a.75.75 0 0 0 .751-.751v-6.86a.75.75 0 0 0-.751-.751Z"/><path fill="#000" d="M151.567 264.852a.67.67 0 1 0 0-1.34.67.67 0 0 0 0 1.34"/><path fill="#eff5ff" fill-rule="evenodd" d="M154.35 259.634h-4.944v1.752h3.046v6.256h2.094v-7.443h-.196z" clip-rule="evenodd" opacity=".074" style="mix-blend-mode:multiply"/><path fill="#eff5ff" stroke="#000" stroke-width="1.252" d="M351.43 198.961H139.202v13.411H351.43z"/><path fill="#eff5ff" fill-rule="evenodd" d="m137.258 200.565-6.773-9.981L245.274 83.637l.796.796.796-.796 114.789 106.947-6.773 9.981-108.812-99.249z" clip-rule="evenodd" opacity=".199" style="mix-blend-mode:multiply"/><path fill="#eff5ff" fill-rule="evenodd" d="M351.6 211.702H140.543v7.515h203.225v82.673h12.691v-88.847H351.6z" clip-rule="evenodd" opacity=".045" style="mix-blend-mode:multiply"/><path fill="#eff5ff" stroke="#000" stroke-width="1.252" d="M361.153 184.577h-9.723v128.042h9.723zm-220.945 0h-9.723v128.042h9.723z"/><path fill="#eff5ff" fill-rule="evenodd" d="M246.453 76.564a.75.75 0 0 0-.569.2L113.935 199.807a.75.75 0 0 0-.037 1.061l5.378 5.767a.75.75 0 0 0 1.061.037L246.453 89.069l126.115 117.604a.75.75 0 0 0 1.061-.037l5.378-5.767a.75.75 0 0 0-.037-1.061L247.021 76.763a.75.75 0 0 0-.568-.2" clip-rule="evenodd"/><path fill="#000" d="m246.453 76.564-.047.624.047.003.047-.003zm0 12.505.426-.457-.426-.398-.427.398zm-.142-11.848a.12.12 0 0 1 .095-.033l.094-1.248a1.38 1.38 0 0 0-1.043.366zM114.362 200.265 246.311 77.221l-.854-.915L113.508 199.35zm-.006.177a.125.125 0 0 1 .006-.177l-.854-.915a1.38 1.38 0 0 0-.068 1.946zm5.378 5.767-5.378-5.767-.916.854 5.379 5.767zm.177.007a.125.125 0 0 1-.177-.007l-.915.854a1.376 1.376 0 0 0 1.945.068zM246.026 88.612 119.911 206.216l.853.915L246.879 89.527zm0 .915L372.141 207.13l.854-.915L246.879 88.612zM372.141 207.13a1.38 1.38 0 0 0 1.946-.068l-.915-.854a.125.125 0 0 1-.177.007zm1.946-.068 5.378-5.767-.915-.854-5.379 5.767zm5.378-5.767a1.38 1.38 0 0 0-.068-1.946l-.854.915a.125.125 0 0 1 .007.177zm-.068-1.946L247.448 76.306l-.853.915 131.948 123.044zM247.448 76.306a1.38 1.38 0 0 0-1.042-.366l.094 1.248a.12.12 0 0 1 .095.033z"/><path stroke="#e2ecde" stroke-linecap="round" stroke-width="1.252" d="M312.494 282.002h15.772m-15.772 4.763h25.146m-29.84 4.512h25.146"/><path stroke="#e2ecde" stroke-width="1.252" d="M317.188 282.236v3.976m4.088.99v3.977m5.095-8.943v3.976m4.087.99v3.977"/><path stroke="#e2ecde" stroke-linecap="round" stroke-width="1.252" d="M263.635 296.504h-15.773m15.773 4.763h-25.146m29.839 4.512h-25.145"/><path stroke="#e2ecde" stroke-width="1.252" d="M258.941 296.738v3.976m-4.088.99v3.977m-5.095-8.943v3.976m-4.088.99v3.977"/><path fill="#8ba660" fill-rule="evenodd" d="M339.878 312.619q.012-.264.011-.531c0-6.997-5.672-12.669-12.669-12.669s-12.669 5.672-12.669 12.669q0 .267.011.531z" clip-rule="evenodd"/><path fill="#000" d="M339.878 312.619v.626h.601l.025-.6zm-25.316 0-.625.026.025.6h.6zm24.702-.531q0 .254-.011.505l1.251.052q.01-.278.011-.557zm-12.044-12.044c6.652 0 12.044 5.392 12.044 12.044h1.251c0-7.343-5.952-13.295-13.295-13.295zm-12.043 12.044c0-6.652 5.392-12.044 12.043-12.044v-1.251c-7.342 0-13.294 5.952-13.294 13.295zm.01.505q-.01-.251-.01-.505h-1.251q0 .28.011.557zm-.625.652h25.316v-1.252h-25.316z"/><path fill="#8ba660" fill-rule="evenodd" d="M367.037 312.619q.017-.415.017-.835c0-11-8.917-19.917-19.917-19.917s-19.917 8.917-19.917 19.917q0 .42.017.835z" clip-rule="evenodd"/><path fill="#000" d="M367.037 312.619v.626h.601l.024-.6zm-39.8 0-.625.026.025.6h.6zm39.192-.835q0 .407-.017.809l1.25.052q.018-.429.018-.861zm-19.292-19.291c10.655 0 19.292 8.637 19.292 19.291h1.251c0-11.345-9.197-20.543-20.543-20.543zm-19.291 19.291c0-10.654 8.637-19.291 19.291-19.291v-1.252c-11.345 0-20.543 9.198-20.543 20.543zm.017.809a20 20 0 0 1-.017-.809h-1.252q0 .432.018.861zm-.626.652h39.8v-1.252h-39.8z"/><path fill="#000b1c" fill-rule="evenodd" d="M325.071 300.047s-3.304 4.548-4.486 7.543-.543 5.197-.543 5.197h-5.364s-.102-5.056 2.682-8.372c2.785-3.316 7.711-4.368 7.711-4.368m15.975-6.734s-4.703 7.236-5.373 11.259c-.671 4.024 0 8.382 0 8.382l-8.163-.475s-.133-7.607 3.493-12.595 10.043-6.571 10.043-6.571" clip-rule="evenodd" opacity=".074" style="mix-blend-mode:multiply"/><path fill="#8ba660" fill-rule="evenodd" d="M493.174 312.632q.027-.662.027-1.33c0-17.534-14.214-31.748-31.748-31.748s-31.747 14.214-31.747 31.748q0 .668.027 1.33z" clip-rule="evenodd"/><path fill="#000" d="M493.174 312.632v.626h.6l.025-.6zm-63.441 0-.625.026.024.6h.601zm62.842-1.33q0 .656-.027 1.305l1.251.051q.027-.675.028-1.356zm-31.122-31.122c17.188 0 31.122 13.933 31.122 31.122h1.252c0-17.88-14.494-32.374-32.374-32.374zm-31.122 31.122c0-17.189 13.934-31.122 31.122-31.122v-1.252c-17.879 0-32.373 14.494-32.373 32.374zm.027 1.305a31 31 0 0 1-.027-1.305h-1.251q0 .681.028 1.356zm-.625.651h63.441v-1.251h-63.441z"/><path fill="#000b1c" fill-rule="evenodd" d="M451.342 281.438s-6.657 11.714-8.047 18.105c-1.39 6.392 1.268 13.076 1.268 13.076h-15.006s-1.063-6.694 6.002-18.434 15.783-12.747 15.783-12.747" clip-rule="evenodd" opacity=".074" style="mix-blend-mode:multiply"/><path fill="#8ba660" stroke="#000" stroke-width="1.252" d="M73.87 256.969c16.152 0 29.246-13.093 29.246-29.245s-13.094-29.245-29.245-29.245-29.245 13.093-29.245 29.245 13.093 29.245 29.245 29.245Z"/><path stroke="#000" stroke-linecap="round" stroke-width="1.252" d="M73.332 219.946v92.629m.602-71.939 12.205-7.538m-13.07-3.242-12.205-7.538"/><path fill="#8ba660" stroke="#000" stroke-width="1.252" d="M99.816 282.17c7.455 0 13.498-6.043 13.498-13.498s-6.043-13.498-13.498-13.498-13.498 6.043-13.498 13.498 6.044 13.498 13.498 13.498Z"/><path fill="#000b1c" fill-rule="evenodd" d="M51.83 208.621s-1.62 14.551 2.21 25.628S68.18 255.9 68.18 255.9s-17.233-3.977-21.651-18.116c-4.419-14.14 5.302-29.163 5.302-29.163m39.978 48.44s-1.838 7.253-.026 13.059 8.302 10.99 8.302 10.99-10.049-.747-12.952-8.736c-2.903-7.988 4.676-15.313 4.676-15.313" clip-rule="evenodd" opacity=".074" style="mix-blend-mode:multiply"/><path stroke="#000" stroke-linecap="round" stroke-width="1.252" d="m97.125 270.542 1.676-8.382m-25.289 19.757 27.999-13.282"/></g><defs><clipPath id="a"><path fill="#fff" d="M0 0h585v313H0z"/></clipPath></defs></svg>