<svg xmlns="http://www.w3.org/2000/svg" width="152" height="101" fill="none" viewBox="0 0 152 101"><path fill="#fff" fill-rule="evenodd" d="M134.055 40.895a32.14 32.14 0 0 0-.152-16.154c-4.615-17.227-22.323-27.45-39.55-22.834-9.77 2.618-17.288 9.447-21.123 18.012-6.66-4.064-14.907-5.5-23.037-3.32-10.767 2.884-18.543 11.36-21.041 21.466-2.374.04-4.78.368-7.178 1.01C6.217 43.297-3.134 59.494 1.088 75.251s20.419 25.108 36.176 20.886a29.4 29.4 0 0 0 13.31-7.708c7.22 7.251 18.01 10.546 28.601 7.708a29.4 29.4 0 0 0 14.698-9.206c7.347 10.77 20.946 16.261 34.252 12.696 16.839-4.512 26.832-21.82 22.32-38.66-2.434-9.083-8.591-16.175-16.39-20.072" clip-rule="evenodd"/></svg>