<svg xmlns="http://www.w3.org/2000/svg" width="353" height="233" fill="none" viewBox="0 0 353 233"><path fill="#fff" fill-rule="evenodd" d="M311.847 93.326c2.988-11.967 3.066-24.84-.352-37.598C300.751 15.63 259.536-8.164 219.439 2.58c-22.742 6.094-40.24 21.99-49.166 41.924-15.499-9.46-34.696-12.8-53.62-7.73-25.06 6.715-43.16 26.443-48.975 49.966a69 69 0 0 0-16.704 2.35C14.298 98.919-7.468 136.617 2.36 173.293s47.525 58.44 84.201 48.613c12.173-3.262 22.703-9.594 30.981-17.94 16.802 16.877 41.917 24.546 66.57 17.94 13.816-3.702 25.517-11.36 34.209-21.428 17.101 25.067 48.754 37.85 79.724 29.551 39.194-10.502 62.454-50.788 51.952-89.982-5.665-21.143-19.998-37.649-38.15-46.72" clip-rule="evenodd"/></svg>