<svg xmlns="http://www.w3.org/2000/svg" width="316" height="145" fill="none" viewBox="0 0 316 145"><path fill="#f8fdda" d="M82.4.723h26.035V142H82.399v-11.908q-11.504 14.734-32.695 14.734-20.385 0-34.916-15.339Q.458 113.947.458 91.544t14.33-37.741q14.532-15.54 34.916-15.541 21.191 0 32.695 14.733zM34.364 112.13q8.074 7.87 20.182 7.871 12.11 0 19.981-7.871 7.872-8.073 7.871-20.586t-7.87-20.385q-7.872-8.073-19.981-8.073T34.365 71.16q-7.872 7.872-7.871 20.385t7.871 20.586m174.574-71.042h26.035V142h-26.035v-11.908q-11.706 14.734-32.898 14.734-20.182 0-34.714-15.339-14.33-15.54-14.329-37.943t14.329-37.741q14.532-15.54 34.714-15.541 21.192 0 32.898 14.733zm-48.035 71.042q7.872 7.87 19.981 7.871 12.11 0 19.981-7.871 8.073-8.073 8.073-20.586t-8.073-20.385q-7.872-8.073-19.981-8.073t-19.981 8.073q-7.87 7.872-7.871 20.385 0 12.513 7.871 20.586m123.714-53.685q3.634-9.689 11.908-14.532 8.477-4.844 18.77-4.844v29.063q-11.908-1.413-21.394 4.844-9.284 6.256-9.284 20.788V142h-26.035V41.088h26.035z"/></svg>