<svg xmlns="http://www.w3.org/2000/svg" width="125" height="58" fill="none" viewBox="0 0 125 58"><path fill="#1a354a" d="M32.7 0h10.39v56.37H32.7v-4.75c-3.06 3.95-7.41 5.88-13.05 5.88S9.58 55.49 5.72 51.38C1.93 47.27 0 42.2 0 36.24s1.93-10.95 5.72-15.06c3.87-4.11 8.54-6.2 13.93-6.2 5.64 0 9.99 1.93 13.05 5.88zM21.59 47.6c3.22 0 5.88-1.05 7.97-3.14 2.09-2.17 3.14-4.91 3.14-8.21s-1.05-6.04-3.14-8.13c-2.09-2.17-4.75-3.22-7.97-3.22s-5.88 1.05-8.05 3.22c-2.09 2.09-3.14 4.83-3.14 8.13s1.05 6.04 3.14 8.21c2.17 2.09 4.83 3.14 8.05 3.14m60.74-31.49h10.39v40.27H82.33v-4.75c-3.14 3.95-7.49 5.88-13.13 5.88s-9.99-2.01-13.85-6.12c-3.78-4.11-5.72-9.18-5.72-15.14s1.93-10.95 5.72-15.06c3.87-4.11 8.46-6.2 13.85-6.2 5.64 0 9.99 1.93 13.13 5.88zM71.13 47.6c3.22 0 5.88-1.05 7.97-3.14 2.17-2.17 3.22-4.91 3.22-8.21s-1.05-6.04-3.22-8.13c-2.09-2.17-4.75-3.22-7.97-3.22s-5.88 1.05-7.97 3.22c-2.09 2.09-3.14 4.83-3.14 8.13s1.05 6.04 3.14 8.21c2.09 2.09 4.75 3.14 7.97 3.14m41.39-24.57c1.93-5.15 6.76-7.73 12.24-7.73v11.6c-3.14-.4-6.04.24-8.54 1.93s-3.7 4.43-3.7 8.29v19.25h-10.39V16.1h10.39z"/></svg>