<svg xmlns="http://www.w3.org/2000/svg" width="315" height="145" fill="none" viewBox="0 0 315 145"><path fill="#1c3349" d="M81.94 0h26.036v141.277H81.94V129.37q-11.504 14.733-32.695 14.733-20.384 0-34.916-15.339-14.33-15.54-14.33-37.943T14.33 53.08q14.532-15.54 34.916-15.54 21.191 0 32.695 14.733zM33.906 111.407q8.073 7.872 20.183 7.871t19.98-7.871q7.871-8.073 7.871-20.586t-7.87-20.384q-7.872-8.073-19.981-8.073t-20.183 8.073q-7.87 7.87-7.871 20.384 0 12.513 7.871 20.586M208.48 40.365h26.035v100.912H208.48V129.37q-11.706 14.733-32.898 14.733-20.182 0-34.714-15.339-14.33-15.54-14.329-37.943t14.329-37.741q14.532-15.54 34.714-15.54 21.192 0 32.898 14.733zm-48.035 71.042q7.872 7.872 19.981 7.871t19.981-7.871q8.073-8.073 8.073-20.586t-8.073-20.384q-7.872-8.073-19.981-8.073t-19.981 8.073q-7.87 7.87-7.871 20.384 0 12.513 7.871 20.586m123.714-53.685q3.634-9.688 11.908-14.532 8.477-4.843 18.77-4.843v29.062q-11.908-1.412-21.394 4.844-9.284 6.256-9.284 20.788v48.236h-26.035V40.365h26.035z"/></svg>