<svg xmlns="http://www.w3.org/2000/svg" width="586" height="321" fill="none" viewBox="0 0 586 321"><path fill="#258acb" fill-rule="evenodd" d="M433.452 34.107c22.994 0 43.031 12.66 53.521 31.39a61.1 61.1 0 0 1 22.549-4.28c29.669 0 54.415 21.076 60.082 49.073 9.737 9.45 15.787 22.676 15.787 37.316 0 28.716-23.279 51.995-51.995 51.995-9.263 0-17.96-2.422-25.493-6.668-10.892 9.924-25.375 15.974-41.271 15.974-19.573 0-37.003-9.173-48.227-23.454-10.622 8.835-24.277 14.148-39.174 14.148-33.856 0-61.301-27.446-61.301-61.302 0-32.405 25.144-58.938 56.986-61.152 7.772-24.937 31.04-43.04 58.536-43.04" clip-rule="evenodd"/><path fill="#70bcff" fill-rule="evenodd" d="M337.623 114.177c2.988-11.967 3.067-24.84-.352-37.598-10.744-40.097-51.958-63.892-92.055-53.148-22.742 6.094-40.24 21.99-49.167 41.924-15.499-9.46-34.695-12.8-53.62-7.73-25.06 6.715-43.16 26.443-48.974 49.966a69 69 0 0 0-16.705 2.351c-36.676 9.827-58.44 47.525-48.614 84.201 9.828 36.675 47.526 58.44 84.201 48.613 12.173-3.262 22.704-9.594 30.982-17.94 16.801 16.877 41.916 24.546 66.569 17.94 13.817-3.702 25.517-11.359 34.209-21.428 17.101 25.068 48.754 37.85 79.725 29.551 39.194-10.502 62.453-50.788 51.951-89.982-5.665-21.143-19.997-37.649-38.15-46.72" clip-rule="evenodd"/></svg>