<svg xmlns="http://www.w3.org/2000/svg" width="430" height="210" fill="none" viewBox="0 0 430 210"><path fill="#258acb" fill-rule="evenodd" d="M193.823 0c32.142 0 60.6 15.772 78.058 39.999a86 86 0 0 1 7.407-.318c30.805 0 57.789 16.356 72.743 40.858a65.7 65.7 0 0 1 12.416-1.179c36.075 0 65.319 29.245 65.319 65.32s-29.244 65.319-65.319 65.319V210H82.413C36.897 210 0 173.103 0 127.588s36.897-82.413 82.413-82.413a82.3 82.3 0 0 1 27.172 4.585C125.956 20.094 157.543 0 193.823 0" clip-rule="evenodd"/></svg>