<svg xmlns="http://www.w3.org/2000/svg" width="354" height="234" fill="none" viewBox="0 0 354 234"><path fill="#fff" fill-rule="evenodd" d="M312.623 94.177c2.988-11.967 3.067-24.84-.352-37.598-10.744-40.097-51.958-63.892-92.055-53.148-22.742 6.094-40.24 21.99-49.167 41.924-15.499-9.46-34.695-12.8-53.62-7.73-25.06 6.715-43.16 26.443-48.974 49.966a69 69 0 0 0-16.705 2.35C15.074 99.77-6.69 137.468 3.136 174.144c9.828 36.675 47.526 58.44 84.202 48.613 12.173-3.262 22.703-9.594 30.981-17.94 16.801 16.877 41.916 24.546 66.569 17.94 13.817-3.702 25.517-11.359 34.209-21.428 17.101 25.068 48.754 37.85 79.725 29.551 39.194-10.502 62.453-50.788 51.951-89.982-5.665-21.143-19.997-37.649-38.15-46.72" clip-rule="evenodd"/></svg>